<svg xmlns="http://www.w3.org/2000/svg" viewBox="0 0 128 128"><defs><style>.cls-1{fill:#fff;}.cls-2{fill:#092696;}</style></defs><title>hsinchu</title><g id="圖層_2" data-name="圖層 2"><circle class="cls-1" cx="64" cy="64" r="58.92"/></g><g id="圖層_1" data-name="圖層 1"><g id="cities"><g id="county"><path id="hsinchu" class="cls-2" d="M88.06,103.24l-.84.44-.31.69-.63.38-2.88-.06-.63.31L80,104.94l-.44-.5-.06-1.06.13-.63-.31-.38V100.5l-.44-.63-.75-.44-.56-.63-.31-.75-1.06-1.19-.31-.75-.75-.38-.38-.56-.81-.44-.25-.63.13-1.44-.56-.75-1.82-.13-.75.25-1.31.88H67.18l-.69.37h-.94l-.63-.56-3.76-.19-.69.25-.75-.19h-.94l-1.06.94L56,94.25l-1.69-.38H51.4V92.81L51,91.87v-1l.38-.75L52.41,89l.25-.75-.06-.94-.75-1.44-1.31-1.06,1-1.62.56-2.06.56-.69.06-.88.44-.63.19-.81-.69-.38-.56-1.69-.94-.25-.69-1.56L50,74.06l-1,.25-.75.44-1.19-.94-.44-.75-.81-.19-.63-.44-1-1.56-.88-.13-.88-.37-.06-.88-.56-.63-.88-.12-1.63-1.06-.44-.75-.69-.69-.81-1.44-.13-.87-1-.38.19-.63.44-.69.13-.81.5-.63-.69-.38.44-.56L35.5,60l-.63.5-.75.31-.44-.56H32.24l-.75-.38-.49-.6,1.24-1.53.19-1.81.63-1.44.81-.19.5-.75.75-.31.56-.44.25-.75.44-.69,2.69-.63-.25-.69.56-.88.75-.25h.94l3.51,3.56.75-.5V50.12l-1.63-5.5-.94-1.31-1.69-1.44-1.82-.19-.06-.31-.25-.5-.69-.44h-.94L33.5,39.5l-.94-1.31-.25-.69-.78-.63.28-.74,1-1.25.25-.88.5-.43.31-1.69,2.76-3.43-.37-.76-.19-.94,2.72-3.91,1.54.41L42.45,22l1.13.75,2.13-.63,1.82.13,1.06,1.06.88.06.06.88.56,1.5-.31.75-.06,1.81,1.5.56.63.69h.94l1,.31.81.63.94-.06.81-.31.63-.44.69.37-.5.44.13.94.38.75,5.82.5.69.5.25,2.75-.88,1.37-.19.81,1.5.94.31.44,1.75,1.37.88.31.94.12V42l1,.37,4.07,3.12h.81l1.94-.88.75.25v.94l1.06.19.75.31.44,1.19.06.56.19.31.75.44.5.63.81.44H82l.25.38.88.06.69.25.63.63.88.19.31.75.63.63-.19.81-.44.63-.25.69-.06,2.19,1.06.19v1.87l-.31.63-.56.56v1.87l.69.25,1.5-.5,1.44.69,1.13,1.44.56.44.38.63.13.88.31.63h.94l.81.37.13.94-.25.75-.06.94-.5.5L92.79,72l.63.38.81.13.75.37-.19.88-.38.69v1.94l.69.25.25.75.38.5h.44l.63.94.75.44,1.81.25,1.29-.35.71.48.31.69.06.88.25.69-.63.56-.25.13-.25.38-.63.38-.69.75-.19.81.31.63.06,3.62-.38.88-.56.69-.69.5-.81,1.25-.88.69-.25.63-.69-.06L93.8,96.13l-.63.38-.94-.19-.69,1.37-.69.38-.56,1.44-.44.56-.75.63-.63,1.25-.06.88-.35.42"/></g></g></g></svg>