<?xml version="1.0" encoding="utf-8"?>
<!-- Generator: Adobe Illustrator 20.1.0, SVG Export Plug-In . SVG Version: 6.00 Build 0)  -->
<svg version="1.1" xmlns="http://www.w3.org/2000/svg" xmlns:xlink="http://www.w3.org/1999/xlink" x="0px" y="0px"
	 viewBox="0 0 128 128" style="enable-background:new 0 0 128 128;" xml:space="preserve">
<style type="text/css">
	.st0{fill:#FFFFFF;}
	.st1{fill:#092696;}
</style>
<g id="圖層_2">
	<circle class="st0" cx="64" cy="64" r="58.9"/>
</g>
<g id="圖層_1" xmlns:sketch="http://www.bohemiancoding.com/sketch/ns">
	<title>hualien</title>
	<desc>Created with Sketch.</desc>
	<g id="cities" sketch:type="MSPage">
		<g id="county" transform="translate(-512.000000, 0.000000)" sketch:type="MSArtboardGroup">
			<path id="hualien" sketch:type="MSShapeGroup" class="st1" d="M583.4,88.1l-0.8-0.2l-0.6-0.4l-0.7-0.2h-0.9l-0.7,0.2l-1,0.9
				l-1.8,3.2l-0.1,0.1l0.1,1.1l0.5,0.6l0.8,0.4v0.1l-2.9,4.5l-0.1,2.1l-0.4,0.5l-0.6,0.4l-0.3,0.6l-0.4,1.5l-0.6,0.4v0.9l-0.4,0.7
				l-0.1,0.7l-0.7,1.4l-1,0.9l-0.2,0.7l0.2,0.9v2.8l-0.2,0.7l-2.4,0.4l-0.6,0.4l-0.5-0.1l-0.1-0.9l-0.4-0.8l-0.5-0.4l-1.1-0.1
				l-0.2-0.2l-0.4-0.5l-0.7-0.2l-0.6-0.4v-0.7l-0.9-1.3v-1l-0.3-0.7l-0.4-0.5l-1.2-0.8l-1.3,0.6l-0.1,0.3h-0.2l-0.7-0.3l-0.3-0.6
				l-0.9-1l-0.9-0.1l-1.3-0.8h-1L553,103l-0.2-0.2l-0.9-2.2l0.1-0.9l-0.9-1.2l-0.2-0.6l0.2-0.7l-0.1-0.9l-3.7-2.6l-0.7-0.2l0.2-0.9
				l0.4-0.6l0.8-0.2l-0.1-0.5l0.4-0.5l0.8-0.1l0.4-0.5v-1.7l-0.6-0.4l-0.1-0.4l0.3-0.3l0.7-0.2l0.7-0.5l0.7-0.2l0.2-0.9l-0.2-0.7
				l-0.6-0.4L551,84l0.2-0.8l0.5-0.5l0.6-0.4l0.2-0.7l0.6-0.4l0.9,0.1l0.7-0.3h0.9l0.3-0.1l0.6,0.4l0.7,0.2l1.2-1v-1.8l0.2-0.7
				l0.6-0.4l-0.6-1.5l0.6-0.3l0.9,0.2l0.7-0.3L561,75l0.8-0.4l1.1-0.1l0.9-2l0.3-2.5l0.3-0.6v-0.9l0.5-1.3v-2.3l-0.6-0.5l-0.1-0.9
				l0.2-0.7l-2-1.4l0.1-0.9l0.8-0.2l0.7-0.5v-0.4l-0.2-0.7l0.1-0.9l0.6-0.4l0.2-0.8l0.1-0.9l0.2-0.7l0.5-0.6l0.1-0.9l0.6-0.5
				l0.7-0.2l-0.1-1.3l-0.4-0.7l1-0.9l-0.1-0.7l-0.2-0.8v-0.9l0.2-0.5v-1.8l-0.5-0.6l-0.2-0.1v-0.9l1.5-3.1l0.1-1.8l0.6-0.5l0.6-0.3
				l0.4-0.6l0.6-0.3l0.5-0.9l0.2-0.6l0.1-0.9l-0.4-0.5l-0.9-0.1l-0.2-0.7l-0.4-0.5l-0.9-0.3l-0.2-0.2l-0.1-1.5l0.7-1.6l0.7-0.2
				l0.5-0.4l0.7-0.3l0.9-0.9h0.9l0.4-0.5l-0.4-1.4l0.5-0.4l0.2-0.4l0-0.6l0.9-0.4l0.3-0.4l0.6,0l0.3-0.3l0.1-0.6l-0.2-1.1l0.3-0.5
				l0.6-0.2l0.4-0.3l0.4-1l0.3-0.4h0.6l0.4-0.3l0.3-0.4l0.5-1l0.2-1.8l0.2-0.5l0.6-0.3l0.3-0.4l2.9,1.9h2l0.7,0.3l1,0.1l2,1.3l2,0.2
				l0.7-0.2l-0.7-0.6l0.2-0.7l0.8-0.2l0.6-0.4l0.6,0.2l0.5-0.4l-0.2-0.4l-0.5-0.4l0.1-0.8l0.5-0.2l1,0.9l1.2,0.4l1.1,0.9l2.2,0.9
				l1.8,0.1l2,1l1,0.1l0,0.3l-0.2,0.3L603,19l-0.2,0.4l-0.5,0.5l-0.6,0.9l0,1.3l-0.3,0.2L601,23l-0.4,0.2l-0.2,0.5l-0.1,0l-0.9,0.1
				l-0.7,1.3l-0.3,0.2l-0.4,0.1l-0.8,0.7l-0.4,0.1l-0.2,0.3l-0.3,0.2l-0.9,1.3l-0.2,0.8v1.4l0.6,1l-0.2,0.2l-0.1,1.3l-0.1,0.1
				l-0.1-0.1l-0.3,0.6l-0.3,0.1l-0.8,0.9l-0.4,0.2l-1.1,1.1l-0.2,0.3l0,2.9l0.2,0.3l0.1,0.8l1.7,1.8v0.5l-0.2,0.8l-0.3-0.1l-0.1,0.4
				l0.2,0.3l-0.4,0.1l-0.3,0.6h0.4l-0.2,0.7l-0.5,0l-0.2-0.3h-0.4l-0.2,0.2l-0.2,0.4l-0.3,0.3l-0.2,0.7l0.3,0.7l0,1.3l-0.2,0.8
				l0,1.3l-0.1,0.4l0,1.3l-0.2,0.3l-0.1,0.8l-0.5,1V55l-0.2,0.3l-0.1,0.4l-0.5,1l-0.1,0.4l-0.8,1.2l-0.2,0.5v2.5l0.1,0.3l-0.3,1.6
				l-0.9,1.3l-0.4,0.3v0.4l-0.2,0.3l0,0.4l0.2,0.2l0.2,0.6l-0.2,0.3l-0.1,0.4l-0.2,0.3l-0.2,1.7l-0.2,0.2l0,0.3l0.2,0.3l-0.2,0.3
				l-0.4,0.2l-0.1,0.8l-0.3,0.4l0,3.1l-0.2,0.4l0,1l-0.2,0.7l-0.3,0.3l-0.1,0.4l-0.4,0.6l0,0.5l-0.3,0.8l0,0.9l-0.2,0.3l-0.1,0.5
				l0.1,0.1l0.2,0.4v0.9l0.4,0.6l0,0.9l-0.1,0.4l-0.2,0.3L584,85l-0.4,0l0.1,0.1l0.4,0.2l-0.2,0.4v0.5l-0.2,0.8v0.5l-0.2,0.4
				L583.4,88.1L583.4,88.1z"/>
		</g>
	</g>
</g>
</svg>
