<svg xmlns="http://www.w3.org/2000/svg" viewBox="0 0 128 128"><defs><style>.cls-1{fill:#fff;}.cls-2{fill:#092696;}</style></defs><title>hsinchu</title><g id="圖層_2" data-name="圖層 2"><circle class="cls-1" cx="64" cy="64" r="58.92"/></g><g id="圖層_1" data-name="圖層 1"><path class="cls-2" d="M64.77,58.85c.52-.18.7.33,1.05.47a6,6,0,0,1,1.46.61c.5.39,1.14.48,1.62.87.64-.24,1,.35,1.52.51.94.28,1.68,1.13,2.77,1a1.08,1.08,0,0,0,1.05.44c.57,0,1.15,0,1.77,0l1.43-1.6a8.58,8.58,0,0,0,3.13-1.37c.32-.53.16-1,.19-1.5s0-.81,0-1.21c-.61-.37-.45-1.25-1.07-1.54s-.14-1.19-.92-1.29c.3-.55.75-.3,1.11-.36s.62,0,.69-.09c.38-.65,1.08-.21,1.52-.52.26-.19.46-.43.83-.4.09,0,.3-.21.29-.31-.06-.73.64-.89,1-1.39V45.29l-.45-.52v-.94l-.51-.55c.44-.51,1.34.08,1.67-.71h1.44a2.11,2.11,0,0,1,1-.56c.31,0,.55-.56,1-.46.25-.6,1-.41,1.39-.84s.32-.86.63-1.25.43-1.39,1.4-1.35c.51-.77,1.43-.94,2.1-1.48A4.47,4.47,0,0,1,96,37.84l.12,1.58c.69.47.24,1.22.46,1.78s.58.93.46,1.53c.59.44.35,1.44,1.16,1.82h6.05a3.36,3.36,0,0,1,.14,1.74l-.91.91v2.1c.57.18,1.29.34,1.36.88.1.77.75,1,1.07,1.58v.92l.45.45V56l.73.83h1.52l.36-.36c.06,0,.13-.12.19-.12h1.9c.45.38.12.83.28,1.15-.3.52-.76.24-1.36.44-.17.17-.53.48-.84.85a11.11,11.11,0,0,0-1.28,3.68l.48.54v1.44l.51.55v1a1.08,1.08,0,0,1,.53,1L111,68.56l.85.3v3.55l-.78.68h-1l-.81-1c-.37.38-.62.71-1.1.61-.36.32-.15,1-.71,1.19v1l.49.53v1c.18.47,1.1,0,1,.8a1.73,1.73,0,0,1-.22.4c-.49.51-1,1-1.52,1.53-.34-.63-.86-.49-1.53-.52l-1.15,1.55v2.17c-.6.45-1.2.07-1.83.34-.54.63-1.54.71-2.31,1.25a14,14,0,0,1-2.5,1.1H95.34c-.06,0-.12-.09-.21-.16.06-.42.46-.57.7-.85a8.68,8.68,0,0,1,.87-.87c.3-.27.63-.51.83-.67,0-2.16-1.58-3.08-2.66-4.3a1.12,1.12,0,0,1-1-.53h-1l-.55-.51h-1.4c-1.27-1-3-1.17-4-2.45H86l-.55-.51H84l-.44-.44h-2l-.49-.49H77.57l-.5.4c-.57.24-1.43-.32-1.93.49-.77-.22-1.28.53-2,.54-.45.57-1.37.48-1.73,1.2a.61.61,0,0,1-.37.27,5.66,5.66,0,0,0-1.63.81,6.27,6.27,0,0,0-1.17,1.18h-.55l-2.27,2.27-.7.7c-.06.06-.17.12-.17.17,0,.76-.74,1-1,1.56-.13.26-.13.58-.38.83s-.09.8-.53,1c0,1.14-.84,2-1.11,3-.09.36-.62.54-.48,1-.8.58-1,1.64-1.72,2.25h-1l-.53.5H56.54c-.44,0-.64-.72-1.21-.55-.3-.54-.82-.43-1.29-.44l-1.47-1.61-.18.23-2.65-1.32c-.34-.17-.78-.27-1-.54-.56-.72-1.5-.84-2.1-1.53-1-1.12-2.07-2.11-3.11-3.15l-1-1a2.14,2.14,0,0,1-.73-1.18c-.07-.39-.7-.55-.83-1.15a15,15,0,0,1,2.18,0l.47.47a6.17,6.17,0,0,0,1.08,0c.49-.08.64.46,1,.5a12,12,0,0,0,1.23,0c.26-.16.5-.43.78-.47a1.33,1.33,0,0,0,1-.88,16.6,16.6,0,0,0,1-2.06c.12-.46.75-.69.54-1.27,0,0,.11-.17.16-.16.85.07,1.05-.93,1.78-1.07a4.05,4.05,0,0,0,.52-.19c0-1.43-.09-2.91,0-4.36.08-1-.68-1.75-.63-2.71-.77-1.06-1.06-2.37-1.86-3.42q0-.86,0-1.72c-.44-.63-.49-1.63-1.31-1.84a2.32,2.32,0,0,1-1.15-.8c-.34-.37-1-.07-1.13-.68l-1.7-.1c-.06-.23-.18-.43-.12-.51A9.39,9.39,0,0,1,45.87,56c.55-.54.68-1.44,1.41-1.87a11.38,11.38,0,0,0,1-.54,4.29,4.29,0,0,0,.62-.68H50L51.89,51c.16,0,.41,0,.46,0,.39-.57,1.28-.3,1.48-1H55.4c.62.88,1.74,1.1,2.42,1.91s1.49,1.52,2.25,2.28l2.27,2.27Z"/><path class="cls-2" d="M33.67,75.09H31.89a5.36,5.36,0,0,0-2.39,1.82c-.37.74.48,1.13.49,1.57l-2,2-.41-.1-.08-1.62c-.16-.26-.41-.2-.65-.22a2.63,2.63,0,0,0-1.67.7c-.52.33-1,.71-1.54,1a8.41,8.41,0,0,0-1.41,1.36l-.29.85H20.86l-.67-.73-.14-1.19H18l-.47-.47L16.41,80c-.31-.18-.18-.45-.21-.67.34-.73,1.25-.66,1.71-1.22.66,0,1.09-.53,1.69-.7V76.18L18.85,76c-.41-.48-.1-1.07-.19-1.63a3.19,3.19,0,0,1,2.15-1.23c.66-.09,1.08-.6,1.7-.67-.05-.66.78-1,.6-1.72-.1-.38.22-.57.44-.79a1.33,1.33,0,0,0,0-.24c0-1.23,0-2.46,0-3.82L25,64.77h1.73l.52.44h1a1.73,1.73,0,0,0,.86-1.3c.06-.05.12-.15.18-.15h2c.47.58,1.37.51,1.72,1.23v.49l2.18,2.17h2c.48.41.23.85.31,1.24l-.49.54v1l-.5.54v4.42c-.61.18-.25,1.1-1.08,1.24A12.28,12.28,0,0,1,33.67,75.09Z"/></g></svg>