<svg xmlns="http://www.w3.org/2000/svg" viewBox="0 0 350.35 369.88"><defs><style>.cls-1,.cls-6,.cls-9{fill:#fff;}.cls-1,.cls-10,.cls-2,.cls-3,.cls-4,.cls-7,.cls-8{stroke:#092689;}.cls-1,.cls-10,.cls-2,.cls-3,.cls-4{stroke-linecap:round;stroke-linejoin:round;}.cls-1,.cls-10,.cls-2{stroke-width:8px;}.cls-2,.cls-8{fill:none;}.cls-10,.cls-11,.cls-3,.cls-4,.cls-5,.cls-7{fill:#092689;}.cls-3,.cls-7,.cls-8{stroke-width:10px;}.cls-4{stroke-width:6px;}.cls-11,.cls-7,.cls-8,.cls-9{stroke-miterlimit:10;}.cls-9{stroke:#fff;}.cls-11{stroke:blue;stroke-width:0.25px;}</style></defs><title>font資產 5</title><g id="圖層_2" data-name="圖層 2"><g id="圖層_1-2" data-name="圖層 1"><polygon class="cls-1" points="310.46 227.28 4 227.28 30.36 190.24 336.82 190.24 310.46 227.28"/><polygon class="cls-2" points="319.99 227.28 13.53 227.28 39.89 190.24 346.35 190.24 319.99 227.28"/><rect class="cls-1" x="104.36" y="109.99" width="141.63" height="141.63"/><circle class="cls-3" cx="175.18" cy="46.85" r="16.36"/><circle class="cls-3" cx="175.18" cy="17.42" r="12.42"/><path class="cls-4" d="M309.57,89.57,274.65,83l.07.29C254,73.36,217.15,66.77,175.18,66.77,133,66.77,96,73.42,75.35,83.41l.07-.26L40.5,89.66l26.73,26.07c17.93,12.54,59.52-34.49,108-34.49,48.23,0,89.65,47.1,107.71,34.66Z"/><path class="cls-5" d="M237.56,164.25c-1.5-14.94-15.19-45.24-30.39-47.5-6.21-.92-15.6.72-15.6.72l-11.75,1.8,3.88,3.07c4.8,3.8,11.56,14,11.56,14,5.39,5,5.63,24,5.75,26.18-9.82-.62-28.8-3.11-40.87,0-22.9,6-33.48,21.1-39.22,32.2l-72.46,9.84L61.61,216.5l-9.85,22.7,73.09-26.63c10.1,7.39,44.83,23.14,68.38,17,28.28-7.39,43.39-35.24,42.91-48.34A43.82,43.82,0,0,0,237.56,164.25Z"/><circle class="cls-6" cx="209.84" cy="134.26" r="6.63"/><circle class="cls-5" cx="207.95" cy="132.65" r="4.42"/><path class="cls-6" d="M232.51,160.64l-2.16-6.47-.15,7.52-2-5.94-.12,6L225.2,153l-.17,8.79-2.37-7.11-.17,8.54-3.15-9.44-.18,9.5-2.91-8.74-.17,8.79L212.62,153l-.18,9-3.18-9.55-.21,11-2.8-8.39-.16,8.44s2,3.49,9.65,3.36c7-.12,13.35-1.22,17.69-2.88A18.5,18.5,0,0,0,232.51,160.64Z"/><path class="cls-6" d="M204.6,175.06c-16.85-7.63-69.25,32.31-69.25,32.31s19.24,9.52,26,11.91a55.28,55.28,0,0,0,55.14-11.4c7.36-6.87,13.32-27.32,13.32-27.32S215.36,179.93,204.6,175.06Z"/><path class="cls-5" d="M228.8,183.71l-3.17,6,.72-7.7-2.91,5.55.57-6.12-4.29,8.16.84-9-3.48,6.64.82-8.75-4.63,8.82.91-9.72-4.29,8.16.84-9-5.09,9.69.87-9.26-4.68,8.92,1.06-11.27-4.12,7.84.81-8.64s2.64-3,11.18-1a73.44,73.44,0,0,1,19.45,7.43A15.93,15.93,0,0,1,228.8,183.71Z"/><path class="cls-7" d="M126.15,205.2c5.61,4.29,35.62,4.49,55-1.69s20.22-21.76,17.39-30.64-20.81-11.06-40.14-4.89S118.63,199.46,126.15,205.2Z"/><path class="cls-6" d="M190.86,175.34a7.78,7.78,0,0,1,.69-7.27c-4.57,2.24-7,6.79-5.34,10.28s6.81,4.65,11.54,2.46a12.44,12.44,0,0,0,2-1.18C195.8,179.92,192.27,178.37,190.86,175.34Z"/><path class="cls-6" d="M172.6,173.54A8.93,8.93,0,0,1,175,166c-5,1-8.39,5.17-7.64,9.4s5.55,7.05,10.68,6.14a11.17,11.17,0,0,0,2.25-.65C176.34,180,173.26,177.22,172.6,173.54Z"/><path class="cls-6" d="M182.73,192.34a8.61,8.61,0,0,1-1.92-6.59,7.09,7.09,0,0,0,9.18,10.8,6.85,6.85,0,0,0,1.18-1.26A8.58,8.58,0,0,1,182.73,192.34Z"/><path class="cls-6" d="M128.93,198s8.34-14.05,13.17-18c3.22-2.63,19-8.32,19-8.32l-4,9,10.13,1.27s-14.52,4.11-19.16,6C143.1,190,128.93,198,128.93,198Z"/><path class="cls-6" d="M132.84,203.2S148.77,206.82,155,206c4.12-.53,19.13-8.09,19.13-8.09l-9.31-3.3,6-8.22s-13,7.71-17.56,9.76C148.34,198.37,132.84,203.2,132.84,203.2Z"/><path class="cls-6" d="M125.26,204.51,67.9,225.24s5.33-3.9,4.08-9.84c-1-4.85-7.56-6.49-7.56-6.49Z"/><polyline class="cls-8" points="176.01 227.64 172.09 239.82 193.27 256.73"/><polyline class="cls-8" points="195 225.45 191.07 237.63 212.25 254.53"/><path class="cls-9" d="M75.16,93.37A5.79,5.79,0,0,1,74.5,96l-.09.18-.24.46-.06.16a2.72,2.72,0,0,0-.2.69,2.32,2.32,0,0,1,0,.28,4.46,4.46,0,0,1-.71,1.78,3.69,3.69,0,0,1-.22.3,2.27,2.27,0,0,0-.41.71,4.67,4.67,0,0,0-.15,1.26l.05,1.23a5,5,0,0,1-.21,1.85V105q-.18,2.54-.18,3.77a.74.74,0,0,1-.15.45,1.2,1.2,0,0,1-.74.44.81.81,0,0,1-.36-.08.45.45,0,0,1-.32-.42,5.22,5.22,0,0,1,0-.76,14.61,14.61,0,0,1,.18-1.83,10.66,10.66,0,0,0,.14-2.05,3.88,3.88,0,0,0,.13-1.05l0-1.22a.12.12,0,0,0-.07-.09.3.3,0,0,0,0-.06,5.07,5.07,0,0,0,0-.62.44.44,0,0,0,0-.14,1.18,1.18,0,0,0,.11-.28l.12-.66a1.17,1.17,0,0,1,.45-.8l.17-.47a11.09,11.09,0,0,1,.91-2,1.14,1.14,0,0,0,.48-.6l.16-.5a1.74,1.74,0,0,1,.43-.77,1.51,1.51,0,0,1,0-.62l.17-.64a1.47,1.47,0,0,0-.05-1l0-.12a2.7,2.7,0,0,0-.42-.71,2.76,2.76,0,0,1-.44-.74q-.26-.23-.55-.52l-.52-.57q-.8-.88-1-1.1a.44.44,0,0,1,0-.14q0-.3.42-.45a.65.65,0,0,1,.25,0A1.33,1.33,0,0,1,72,89a2.48,2.48,0,0,0,.53.37,3.61,3.61,0,0,0,.32.33l.59.51a3.13,3.13,0,0,1,.77.92.58.58,0,0,0,.05.38,1.64,1.64,0,0,0,.32.36.9.9,0,0,1,.31.46A2.63,2.63,0,0,1,75.16,93.37Zm10.07,13.78a6.23,6.23,0,0,1,.09,1.26,1.15,1.15,0,0,1-.93,1.09H84q-.45,0-.37-.4a1.28,1.28,0,0,1,0-.29l.17-.57a.76.76,0,0,0-.11-.71,1.27,1.27,0,0,0,.12-.54l0-.56a.75.75,0,0,1-.06-.21s0-.2,0-.49a.67.67,0,0,0-.22-.57q0-.32-.09-.68l-.35-1.85q0-.21-.15-1a5.26,5.26,0,0,0-.39-1.55l-.23-.46-.63-1.08-.19-.43a3,3,0,0,0-.54-1h0a.54.54,0,0,0-.23-.33.63.63,0,0,0-.07-.16,1.27,1.27,0,0,0-.07-.22,3.16,3.16,0,0,0-.68-.86L79.64,95a2.76,2.76,0,0,1-.19-2.23l0-.15q0-.09.21-.45a.71.71,0,0,0,.08-.6l.24-.33.43-.67q.6-1,.8-1.24a1.25,1.25,0,0,1,0-.35,1.3,1.3,0,0,1,.84-.85l.13,0a1.35,1.35,0,0,1,1,.33v.28a3.27,3.27,0,0,0-.43.46l-.47.65a3.42,3.42,0,0,1-.88.88.45.45,0,0,1,0,.25,1,1,0,0,1-.21.4,1,1,0,0,0-.21.52.91.91,0,0,1-.08.22l-.32.59a.67.67,0,0,0,0,.77,3.22,3.22,0,0,0,1.17,2.88l.07.1.93,1.19a3.94,3.94,0,0,1,.79,1.66,7.4,7.4,0,0,1,.5,1.31,21.06,21.06,0,0,1,.48,2.44q.16,1,.23,1.73a4.93,4.93,0,0,0,.13.54,2.13,2.13,0,0,1,.12.88A4.51,4.51,0,0,0,85.23,107.14Z"/><path class="cls-9" d="M110.21,82.89a4.35,4.35,0,0,1-.5,2l-.07.13-.18.34,0,.12a2,2,0,0,0-.15.51,1.74,1.74,0,0,1,0,.21,3.35,3.35,0,0,1-.53,1.34l-.17.22a1.71,1.71,0,0,0-.31.53,3.5,3.5,0,0,0-.11.94l0,.92A3.74,3.74,0,0,1,108,91.5v.13q-.13,1.91-.13,2.83a.55.55,0,0,1-.11.34.9.9,0,0,1-.55.33.61.61,0,0,1-.27-.06.34.34,0,0,1-.24-.31,3.92,3.92,0,0,1,0-.57,11,11,0,0,1,.14-1.37,8,8,0,0,0,.11-1.54,2.91,2.91,0,0,0,.1-.79l0-.91a.09.09,0,0,0-.05-.07.22.22,0,0,0,0,0,3.76,3.76,0,0,0,0-.47.33.33,0,0,0,0-.11.88.88,0,0,0,.08-.21l.09-.49a.88.88,0,0,1,.34-.6l.13-.35a8.31,8.31,0,0,1,.68-1.51.86.86,0,0,0,.36-.45l.12-.38a1.3,1.3,0,0,1,.33-.58,1.13,1.13,0,0,1,0-.47l.13-.48a1.1,1.1,0,0,0,0-.76l0-.09a2.08,2.08,0,0,0-.32-.53,2.07,2.07,0,0,1-.33-.55L108,81l-.39-.43-.76-.82a.33.33,0,0,1,0-.11q0-.23.32-.33a.49.49,0,0,1,.18,0,1,1,0,0,1,.45.25,1.87,1.87,0,0,0,.4.28,2.6,2.6,0,0,0,.24.25l.44.38a2.35,2.35,0,0,1,.58.69.44.44,0,0,0,0,.28,1.22,1.22,0,0,0,.24.27.68.68,0,0,1,.23.35A2,2,0,0,1,110.21,82.89Zm7.55,10.33a4.69,4.69,0,0,1,.07.95.87.87,0,0,1-.7.82h-.32c-.22,0-.32-.12-.28-.3a1,1,0,0,1,0-.22l.13-.43a.57.57,0,0,0-.08-.54,1,1,0,0,0,.09-.4l0-.42a.56.56,0,0,1,0-.15s0-.15,0-.36a.5.5,0,0,0-.16-.43q0-.24-.07-.51l-.26-1.39q0-.16-.11-.75a4,4,0,0,0-.29-1.16l-.18-.35-.47-.81-.14-.33a2.22,2.22,0,0,0-.4-.78h0a.41.41,0,0,0-.18-.25.47.47,0,0,0-.05-.12,1,1,0,0,0-.05-.16,2.37,2.37,0,0,0-.51-.65l-.15-.33a2.07,2.07,0,0,1-.14-1.67v-.11a3.62,3.62,0,0,1,.15-.33.53.53,0,0,0,.06-.45l.18-.25.33-.5q.45-.73.6-.93a.94.94,0,0,1,0-.26,1,1,0,0,1,.63-.64l.1,0a1,1,0,0,1,.78.25v.21a2.4,2.4,0,0,0-.32.34l-.36.49a2.57,2.57,0,0,1-.66.66.34.34,0,0,1,0,.19.8.8,0,0,1-.15.3.71.71,0,0,0-.16.39.72.72,0,0,1-.06.16l-.24.44a.5.5,0,0,0,0,.58,2.41,2.41,0,0,0,.88,2.16l.05.07.69.89a3,3,0,0,1,.59,1.25,5.55,5.55,0,0,1,.38,1,15.79,15.79,0,0,1,.36,1.83q.12.77.18,1.3a3.51,3.51,0,0,0,.1.41,1.6,1.6,0,0,1,.09.66A3.38,3.38,0,0,0,117.76,93.22Z"/><path class="cls-9" d="M144.77,75a3.38,3.38,0,0,1-.39,1.52l-.05.1-.14.27,0,.09a1.62,1.62,0,0,0-.12.4,1.58,1.58,0,0,1,0,.16,2.59,2.59,0,0,1-.41,1l-.13.17a1.33,1.33,0,0,0-.24.41,2.74,2.74,0,0,0-.09.74l0,.72a2.91,2.91,0,0,1-.12,1.08v.1q-.1,1.48-.1,2.2a.43.43,0,0,1-.09.26.7.7,0,0,1-.43.26.46.46,0,0,1-.21,0,.27.27,0,0,1-.18-.24,2.91,2.91,0,0,1,0-.44,8.54,8.54,0,0,1,.11-1.07,6.18,6.18,0,0,0,.08-1.2,2.25,2.25,0,0,0,.08-.62l0-.71a.07.07,0,0,0,0-.05.19.19,0,0,0,0,0,3.26,3.26,0,0,0,0-.36.27.27,0,0,0,0-.08.64.64,0,0,0,.06-.16l.07-.38a.69.69,0,0,1,.26-.46l.1-.27a6.53,6.53,0,0,1,.53-1.18.66.66,0,0,0,.28-.35l.1-.29a1,1,0,0,1,.25-.45.86.86,0,0,1,0-.36l.1-.38a.86.86,0,0,0,0-.59l0-.07a1.52,1.52,0,0,0-.25-.41,1.61,1.61,0,0,1-.26-.43l-.32-.3-.3-.33-.59-.64a.27.27,0,0,1,0-.08c0-.12.08-.21.25-.26h.14a.78.78,0,0,1,.35.2,1.46,1.46,0,0,0,.31.21l.19.19.35.3a1.84,1.84,0,0,1,.45.54.33.33,0,0,0,0,.22.93.93,0,0,0,.18.21.52.52,0,0,1,.18.27A1.54,1.54,0,0,1,144.77,75Zm5.87,8a3.63,3.63,0,0,1,.05.74.67.67,0,0,1-.54.63h-.25c-.17,0-.24-.09-.21-.24a.75.75,0,0,1,0-.17l.1-.33a.44.44,0,0,0-.06-.42.74.74,0,0,0,.07-.31l0-.33a.44.44,0,0,1,0-.12s0-.12,0-.28a.39.39,0,0,0-.13-.34c0-.12,0-.26-.05-.4l-.21-1.08c0-.08,0-.28-.09-.58a3.07,3.07,0,0,0-.23-.91l-.14-.27-.37-.63-.11-.25a1.73,1.73,0,0,0-.31-.61h0A.32.32,0,0,0,148,77a.4.4,0,0,0,0-.1.7.7,0,0,0,0-.13,1.85,1.85,0,0,0-.4-.5l-.12-.26a1.61,1.61,0,0,1-.11-1.3v-.08l.12-.26a.41.41,0,0,0,0-.35l.14-.19.25-.39q.35-.56.47-.72a.72.72,0,0,1,0-.2.76.76,0,0,1,.49-.5l.08,0a.79.79,0,0,1,.61.19v.16a2,2,0,0,0-.25.27L149,73a2,2,0,0,1-.51.52.26.26,0,0,1,0,.15.58.58,0,0,1-.12.24.56.56,0,0,0-.12.3.5.5,0,0,1,0,.13l-.18.34a.39.39,0,0,0,0,.45,1.88,1.88,0,0,0,.68,1.68l0,.06.54.69a2.31,2.31,0,0,1,.46,1,4.38,4.38,0,0,1,.29.77,12.29,12.29,0,0,1,.28,1.42q.1.6.14,1a2.79,2.79,0,0,0,.08.32,1.24,1.24,0,0,1,.07.52A2.68,2.68,0,0,0,150.65,83.07Z"/><path class="cls-9" d="M263.44,104.39a2.13,2.13,0,0,1,.12-.88,4.93,4.93,0,0,0,.13-.54q.07-.71.23-1.73a21.06,21.06,0,0,1,.48-2.44,7.4,7.4,0,0,1,.5-1.31,3.94,3.94,0,0,1,.79-1.66l.93-1.19.07-.1a3.22,3.22,0,0,0,1.17-2.88.67.67,0,0,0,0-.77l-.32-.59a.91.91,0,0,1-.08-.22,1,1,0,0,0-.21-.52,1,1,0,0,1-.21-.4.45.45,0,0,1,0-.25,3.42,3.42,0,0,1-.88-.88l-.47-.65a3.27,3.27,0,0,0-.43-.46v-.28a1.35,1.35,0,0,1,1-.33l.13,0a1.3,1.3,0,0,1,.84.85,1.25,1.25,0,0,1,0,.35q.21.28.8,1.24l.43.67.24.33a.71.71,0,0,0,.08.6q.18.36.21.45l0,.15a2.76,2.76,0,0,1-.19,2.23l-.21.44a3.16,3.16,0,0,0-.68.86,1.27,1.27,0,0,0-.07.22.63.63,0,0,0-.07.16.54.54,0,0,0-.23.33h0a3,3,0,0,0-.54,1l-.19.43-.63,1.08-.23.46a5.26,5.26,0,0,0-.39,1.55q-.11.79-.15,1l-.35,1.85q-.06.36-.09.68a.67.67,0,0,0-.22.57q0,.43,0,.49a.75.75,0,0,1-.06.21l0,.56a1.27,1.27,0,0,0,.12.54.76.76,0,0,0-.11.71l.17.57a1.28,1.28,0,0,1,0,.29q.08.37-.37.4h-.43a1.15,1.15,0,0,1-.93-1.09,6.23,6.23,0,0,1,.09-1.26A4.51,4.51,0,0,0,263.44,104.39Zm10.27-13.92A.9.9,0,0,1,274,90a1.64,1.64,0,0,0,.32-.36.58.58,0,0,0,.05-.37,3.13,3.13,0,0,1,.77-.92l.59-.51a3.61,3.61,0,0,0,.32-.33,2.48,2.48,0,0,0,.53-.37,1.33,1.33,0,0,1,.6-.33.65.65,0,0,1,.25,0q.42.14.42.45a.44.44,0,0,1,0,.14q-.21.21-1,1.1l-.52.57q-.29.29-.55.52a2.76,2.76,0,0,1-.44.74,2.7,2.7,0,0,0-.42.71l0,.12a1.47,1.47,0,0,0-.05,1l.17.64a1.51,1.51,0,0,1,0,.62,1.74,1.74,0,0,1,.43.77l.16.5a1.14,1.14,0,0,0,.48.6,11.09,11.09,0,0,1,.91,2l.17.47a1.17,1.17,0,0,1,.45.8l.12.66a1.18,1.18,0,0,0,.11.28.44.44,0,0,0,0,.14,5.07,5.07,0,0,0,0,.62.3.3,0,0,0,0,.06.12.12,0,0,0-.07.09l0,1.22a3.88,3.88,0,0,0,.13,1.05,10.66,10.66,0,0,0,.14,2.05,14.61,14.61,0,0,1,.18,1.83,5.22,5.22,0,0,1,0,.76.45.45,0,0,1-.32.42.81.81,0,0,1-.36.08,1.2,1.2,0,0,1-.74-.44.74.74,0,0,1-.15-.45q0-1.22-.18-3.77V103a5,5,0,0,1-.21-1.85l.05-1.23a4.67,4.67,0,0,0-.15-1.26,2.27,2.27,0,0,0-.41-.71,3.69,3.69,0,0,1-.22-.3,4.46,4.46,0,0,1-.71-1.78,2.32,2.32,0,0,1,0-.28,2.72,2.72,0,0,0-.2-.69l-.06-.16-.24-.46-.09-.18a5.79,5.79,0,0,1-.67-2.6A2.63,2.63,0,0,1,273.71,90.47Z"/><path class="cls-9" d="M230.9,90.69A1.6,1.6,0,0,1,231,90a3.51,3.51,0,0,0,.1-.41q.05-.53.18-1.3a15.79,15.79,0,0,1,.36-1.83,5.55,5.55,0,0,1,.38-1,3,3,0,0,1,.59-1.25l.69-.89.05-.07a2.41,2.41,0,0,0,.88-2.16.5.5,0,0,0,0-.58l-.24-.44a.72.72,0,0,1-.06-.16.71.71,0,0,0-.16-.39.8.8,0,0,1-.15-.3.34.34,0,0,1,0-.19,2.57,2.57,0,0,1-.66-.66l-.36-.49a2.4,2.4,0,0,0-.32-.34v-.21a1,1,0,0,1,.78-.25l.1,0a1,1,0,0,1,.63.64.94.94,0,0,1,0,.26q.15.21.6.93l.33.5.18.25a.53.53,0,0,0,.06.45,3.62,3.62,0,0,1,.15.33v.11a2.07,2.07,0,0,1-.14,1.67l-.15.33a2.37,2.37,0,0,0-.51.65,1,1,0,0,0-.05.16.47.47,0,0,0-.05.12.41.41,0,0,0-.18.25h0a2.22,2.22,0,0,0-.4.78l-.14.33-.47.81-.18.35a4,4,0,0,0-.29,1.16q-.08.59-.11.75l-.26,1.39q0,.27-.07.51a.5.5,0,0,0-.16.43c0,.22,0,.34,0,.36a.56.56,0,0,1,0,.15l0,.42a1,1,0,0,0,.09.4.57.57,0,0,0-.08.54l.13.43a1,1,0,0,1,0,.22c0,.18-.05.29-.28.3h-.32a.87.87,0,0,1-.7-.82,4.69,4.69,0,0,1,.07-.95A3.38,3.38,0,0,0,230.9,90.69Zm7.7-10.44a.68.68,0,0,1,.23-.35,1.22,1.22,0,0,0,.24-.27.44.44,0,0,0,0-.28,2.35,2.35,0,0,1,.58-.69l.44-.38a2.6,2.6,0,0,0,.24-.25,1.87,1.87,0,0,0,.4-.28,1,1,0,0,1,.45-.25.49.49,0,0,1,.18,0q.32.11.32.33a.33.33,0,0,1,0,.11l-.76.82-.39.43-.41.39a2.07,2.07,0,0,1-.33.55,2.08,2.08,0,0,0-.32.53l0,.09a1.1,1.1,0,0,0,0,.76l.13.48a1.13,1.13,0,0,1,0,.47,1.3,1.3,0,0,1,.33.58l.12.38a.86.86,0,0,0,.36.45,8.31,8.31,0,0,1,.68,1.51l.13.35a.88.88,0,0,1,.34.6l.09.49a.88.88,0,0,0,.08.21.33.33,0,0,0,0,.11,3.76,3.76,0,0,0,0,.47.22.22,0,0,0,0,0,.09.09,0,0,0-.05.07l0,.91a2.91,2.91,0,0,0,.1.79,8,8,0,0,0,.11,1.54,11,11,0,0,1,.14,1.38,3.92,3.92,0,0,1,0,.57.34.34,0,0,1-.24.31.61.61,0,0,1-.27.06.9.9,0,0,1-.55-.33.55.55,0,0,1-.11-.34q0-.92-.13-2.83v-.13a3.74,3.74,0,0,1-.16-1.38l0-.92a3.5,3.5,0,0,0-.11-.94,1.71,1.71,0,0,0-.31-.53l-.17-.22a3.35,3.35,0,0,1-.53-1.34,1.74,1.74,0,0,1,0-.21,2,2,0,0,0-.15-.51l0-.12-.18-.34-.07-.13a4.35,4.35,0,0,1-.5-2A2,2,0,0,1,238.59,80.25Z"/><path class="cls-9" d="M198,80.7a1.24,1.24,0,0,1,.07-.52,2.84,2.84,0,0,0,.08-.32q0-.41.14-1a12.24,12.24,0,0,1,.28-1.42,4.35,4.35,0,0,1,.29-.77,2.31,2.31,0,0,1,.46-1l.54-.69,0-.06a1.88,1.88,0,0,0,.68-1.68.39.39,0,0,0,0-.45l-.18-.34a.5.5,0,0,1,0-.13.55.55,0,0,0-.12-.3.58.58,0,0,1-.12-.24.26.26,0,0,1,0-.15,2,2,0,0,1-.51-.52l-.28-.38a2,2,0,0,0-.25-.27v-.16a.79.79,0,0,1,.61-.19l.08,0a.76.76,0,0,1,.49.5.72.72,0,0,1,0,.2q.12.16.47.72L201,72l.14.19a.41.41,0,0,0,0,.35l.12.26v.08a1.61,1.61,0,0,1-.11,1.3l-.12.26a1.84,1.84,0,0,0-.4.5.68.68,0,0,0,0,.13.4.4,0,0,0,0,.1.32.32,0,0,0-.14.19h0a1.73,1.73,0,0,0-.31.61l-.11.25-.37.63-.14.27a3.07,3.07,0,0,0-.23.91c0,.31-.07.5-.09.58L199,79.67c0,.14,0,.27-.05.4a.39.39,0,0,0-.13.33q0,.25,0,.28a.45.45,0,0,1,0,.12l0,.33a.74.74,0,0,0,.07.31.44.44,0,0,0-.06.42l.1.33a.74.74,0,0,1,0,.17c0,.14,0,.22-.21.24h-.25a.67.67,0,0,1-.54-.64,3.62,3.62,0,0,1,.05-.73A2.68,2.68,0,0,0,198,80.7Zm6-8.12a.52.52,0,0,1,.18-.27,1,1,0,0,0,.18-.21.33.33,0,0,0,0-.22,1.83,1.83,0,0,1,.45-.54l.35-.3.19-.19a1.46,1.46,0,0,0,.31-.21.78.78,0,0,1,.35-.2h.14c.16.05.25.14.25.26a.27.27,0,0,1,0,.08l-.59.64-.3.33-.32.3a1.59,1.59,0,0,1-.26.43,1.54,1.54,0,0,0-.25.41l0,.07a.86.86,0,0,0,0,.59l.1.38a.87.87,0,0,1,0,.36,1,1,0,0,1,.25.45l.1.29a.67.67,0,0,0,.28.35,6.5,6.5,0,0,1,.53,1.18l.1.27a.69.69,0,0,1,.26.46l.07.38a.64.64,0,0,0,.06.16.27.27,0,0,0,0,.08,3.25,3.25,0,0,0,0,.36.19.19,0,0,0,0,0,.07.07,0,0,0,0,.05l0,.71a2.25,2.25,0,0,0,.08.62,6.16,6.16,0,0,0,.08,1.2,8.55,8.55,0,0,1,.11,1.07,2.91,2.91,0,0,1,0,.44.27.27,0,0,1-.18.24.47.47,0,0,1-.21,0,.7.7,0,0,1-.43-.26.43.43,0,0,1-.09-.26q0-.71-.1-2.2v-.1a2.91,2.91,0,0,1-.12-1.08l0-.72a2.74,2.74,0,0,0-.09-.74,1.33,1.33,0,0,0-.24-.41l-.13-.17a2.6,2.6,0,0,1-.41-1,1.58,1.58,0,0,1,0-.16,1.6,1.6,0,0,0-.12-.4l0-.09-.14-.27-.05-.1a3.38,3.38,0,0,1-.39-1.52A1.54,1.54,0,0,1,204,72.58Z"/><rect class="cls-10" x="104.36" y="251.61" width="141.63" height="11.85"/><g id="cities"><g id="taiwan"><path class="cls-6" d="M169.83,23.5l.57-.39.27-.76,0-.83.23-.83.21-.78.23-.8.62-.87,1-.69,1-.42.78-.65.56.36-.53-.71.26-.74.64-.61h.71l.56.57h.51l.17.37.54.21.69-.12h.7l.44-.17-.07.59.39.52.73,0-.35.48-.59.63-.3.69-.14,1,.38.84.41,1,.44.28.09.72-.3.34.3.32-.44.61,0,1,.11.47-.26.34v.51l-.38.41-.22.46.22.46-.31.54.09.57.34.33v.41l-.29.23.18.94-.08.81.14.61-.19.42.17.74-.08.2.09.72-.15.39.26.6-.06,2-.22.24v.87l-.23.34.28.67.2.29-.44.4-.09.73-.17.2,0,.61-.26.15-.18,1-.47.28.23.66-.11.45-.41.62-.54.48-.31.31-.08.44.1.42-.18.31-.07,1-.13.64-.09.73-.09.57.32.87v.37l.27.72-.06.22.2.26-.06.28.19.48-.12.37-.28.3.37.86-.62-.21-.5-.18-.12.37-.41.1-.14-.59-.32-.45.14-.82-.66-1.26-.59-.78-.52-.38-.19-.35L172,48.64l-.32-.16-.17-.88-.11.94-1-.57-.67-.62-.2-.51.14-.39-.83-1-.31-.63-.42-.58-.11-.57-1-.38-.46-.16-.27-.65.44-.33-.43-.46.16-.77.23-.57-.2-.47.33-.63-.13-.37-.25-.9L166,38l.28-.59-.27-.73.12-1.14-.13-.43.44-1.21.36-.1.36-1.68,0-.57.43-.5.2-1-.19-.29.4-.31.18-.64-.17-.4.29-.55.26-.46.08-.61.21-.56.26-.45s.23-.69.23-.69l.23-.85C169.69,23.82,169.83,23.5,169.83,23.5Z"/></g></g><path class="cls-11" d="M66.19,310a56.19,56.19,0,0,1,11.2-1.17A46.48,46.48,0,0,1,88.08,310a5,5,0,0,1,2.16,4.22v.89q-.14.52-.19.77t-.19.8a6.32,6.32,0,0,1-.33,1v.7l9.84,1.45a.91.91,0,0,1,.52.8q0,1.31-3.33,3.38h-.66a51.72,51.72,0,0,0-18.09-3.37A49,49,0,0,0,62,323.32q-3.61-1.55-3.61-2.67,0-.8,2.2-1.55l6.42-.7q-1-1.78-1.55-3.09a8,8,0,0,1-.47-2.48A3.52,3.52,0,0,1,66.19,310Zm2.86-21.75a4.19,4.19,0,0,1-.75-.87,1.69,1.69,0,0,1-.28-.91,1.44,1.44,0,0,1,.33-1l.84-.09q2,0,2,2.58v.28q2.86.7,2.91,1.31t-2.91.84q-.89,3.38-1.55,3.47t-.56-3.47l-4.22.66q-2.11-.7-2.2-1.27t1.8-1A16.48,16.48,0,0,1,69.05,288.3Zm-4.22,5.63,6.19-.14,5.81.14q.84.28.89.75T76.08,296h-.7l-.75,0q-1.45,0-1.45,1l.14.47a5,5,0,0,1,2.55.56,1.69,1.69,0,0,1,1,1.5l0,1.17,0,.94L76.08,303l-.7.75q-2.2,0-2.2,1.64l.14.42,5.58.7.23.47,0,.42q0,1.22-2.34,1.22h-.75l-1.87,0-2.91-.19a17.69,17.69,0,0,0-6.47.94l-.66.09q-1.45,0-1.45-1.27l.14-.94c0-.12.09-.33.19-.61a6.07,6.07,0,0,1,.33-.8,7.57,7.57,0,0,0,.84-3.75,20.77,20.77,0,0,0-.84-5.34l0-.47A3.14,3.14,0,0,1,64.83,293.92ZM66.19,296l-.14.84.14.56a6.47,6.47,0,0,0,2.63.66,4.27,4.27,0,0,0,2.34-.66.71.71,0,0,0,.28-.56,1.37,1.37,0,0,0-.28-.84l-1.31-.19-1-.09-1.22.09Zm0,3.47-.09.84.09.56,2.48.56,2.16.19a9.8,9.8,0,0,0,3.84-.75q.56-.23.56-.52t-.56-.89l-4.12-.14Zm0,4.22-.09,1.36.09.7a4.43,4.43,0,0,0,2.44.8,4.72,4.72,0,0,0,2.53-.8.81.81,0,0,0,.56-.8,2.12,2.12,0,0,0-.56-1.27l-2.25-.14Zm2.86,8.39-.23,1.45-.09,1.13.14,1.59.19,1.41a3.8,3.8,0,0,0,2.06.7,3.29,3.29,0,0,0,1-.19,3.06,3.06,0,0,0,1.17-.52,7.62,7.62,0,0,0,.66-2.86,5.82,5.82,0,0,0-.66-2.72L71.21,312Zm7.78,0-.19,1.64,0,1.13,0,1.41v.59a3.53,3.53,0,0,0,.19.82,2.31,2.31,0,0,0,1.45.7,2.44,2.44,0,0,0,1.41-.7l.28-1.27.09-1.45v-.75a3.49,3.49,0,0,0-.09-.84,4.46,4.46,0,0,0-.28-1.27,2.62,2.62,0,0,0-1.27-.28A6.11,6.11,0,0,0,76.83,312.11Zm7.73-23.81a3.37,3.37,0,0,1-.47-1.22,1.73,1.73,0,0,1,1.22-1.55q2.06,0,2.06,2.25v.52q3.66.84,3.75,1.41,0,.75-3.75.75-1.31,3.42-2.06,3.47t-.75-3.47l-3.52.66q-2.63-.84-2.62-1.5,0-.47,1.64-.89A18.88,18.88,0,0,1,84.57,288.3Zm0,7.73a5.13,5.13,0,0,1,2.11-.94q.84,0,.84,1.22l-.14,1.13,6.38.66q1.17.42,1.17,1.22t-1.87,1.59h-.66l-7.08-1.41-2.86,1.41-1.55.28-1.22.14q-.84,0-.89-.33,0-.8,3.66-2.91Zm-.7,6.28h1.5a19.87,19.87,0,0,1,2.11.19,10.24,10.24,0,0,1,1.24,0L91,303a2.32,2.32,0,0,1,.84,1.5,1.52,1.52,0,0,1-.19.66,4.06,4.06,0,0,1-2.44,1,4.25,4.25,0,0,1-2.48-1l-3.52-.7q-.89-.42-.94-.89T83.86,302.32Zm-.66,9.8a9.43,9.43,0,0,0-.42,2.81,9.59,9.59,0,0,0,.42,2.77,1.86,1.86,0,0,0,1.5.75,3.94,3.94,0,0,0,2-.75,10.89,10.89,0,0,0,.28-1.24,8.19,8.19,0,0,0,.09-1.29q0-.94,0-1.41a14.5,14.5,0,0,0-.33-1.64l-.84-.23-.89-.14a3.23,3.23,0,0,0-1,.09A2.18,2.18,0,0,0,83.21,312.11Z"/><path class="cls-11" d="M117.52,297.3q.52-1.45,1.31-1.45a1.79,1.79,0,0,1,.94.33,4,4,0,0,1,.47,1.78,13.43,13.43,0,0,1-2.86,8.34,21.63,21.63,0,0,1-7.73,6,11.59,11.59,0,0,1-2.2.33q-1.83,0-1.83-1.27l0-.75a6,6,0,0,1,1.88-1.36q10-2.77,10-11.67Zm8.34-1.64a2,2,0,0,1,1.22-.47,2.09,2.09,0,0,1,1.64.84q5.06,11.06,19.78,15.61l.14.61q0,1.31-4.69,2-5.39-.61-16.64-15-1.73-1.5-1.73-2.58l0-.28Z"/><path class="cls-11" d="M160.79,299q1.5,0,5-.09l3.82-.09h3.14a7.81,7.81,0,0,0,.23-2.06,23.71,23.71,0,0,0-.8-5.34q.19-1.64,1.17-1.64a3,3,0,0,1,1.73,1,22,22,0,0,1,.38,4,27,27,0,0,1-.37,4.22l6.19-.09,6.33.09q1.08.38,1.08.94,0,.84-1.78,2a68.5,68.5,0,0,0-8.11-.56q-.7,0-2.32.09l-1.71.09-1.12,3.28a61.66,61.66,0,0,0,20.25,11.77,1.23,1.23,0,0,1,.61,1q0,1-3.52,1.88l-1.59.19a2.94,2.94,0,0,1-2.48-1q-3-2.81-6.33-5.53-3-2.48-7.69-6.09a34.81,34.81,0,0,1-7.17,7.66,11.67,11.67,0,0,1-6.94,2.6q-3-1.08-3-1.87t2.44-1.45q10.87-3.84,14.16-12.42a15.51,15.51,0,0,0-1.76-.14q-1.2,0-1.8,0a37,37,0,0,0-7.27.75,2.61,2.61,0,0,1-.89.33,2.08,2.08,0,0,1-1.55-.89,1.88,1.88,0,0,1-.56-1Q158.58,299.64,160.79,299Z"/><path class="cls-11" d="M209.91,294.58l-.09-2.2q0-4.55,1.55-4.83.84.94.84,3.75v1.92q-.14.94-.19,1.36,3,.47,3,1t-3,1.08l0,2.81,0,2.77,1.62-.42a6.11,6.11,0,0,1,1.29-.23.45.45,0,0,1,.33.14q0,.56-3.23,2.63l.14,5.06-.14,4.73q-.8,6-7.08,7.69l-1.12,0q-1.78,0-1.78-.75t1.55-2.11q5.48,0,6.33-5.58,0-.94.12-2.39t.12-1.73q0-.89-.12-2.41t-.12-1.85q-3.7,3.56-5.3,3.56l-.37,0q-1.83-.42-1.83-1.27,0-.61,1.17-1.55l6.33-2.81q.09-.75.16-1.66t.07-1.29q0-.7-.12-1.87t-.12-1.45q-1.22.23-2.53.45a15.43,15.43,0,0,1-2.44.21l-1.31.19q-1.17,0-1.17-.61a1.22,1.22,0,0,1,.26-.66,7.73,7.73,0,0,1,.87-1,12.58,12.58,0,0,1,4.83-.7Zm9.14-4.92,4.55-.09,4,.09A2.28,2.28,0,0,1,229,292.1a4.1,4.1,0,0,1-.09,1l-.14,2.58.14,2.39v.28q0,1.83-1.59,1.83l-.52,0-3-.09-3.42.09.09,3q0,5.16-.8,6.84-1.5,8-5.67,9.09l-1.36.28a1.07,1.07,0,0,1-.56-.14.42.42,0,0,1-.23-.37,3.06,3.06,0,0,1,.59-1.29,15.17,15.17,0,0,1,1.57-2,8.86,8.86,0,0,0,3.66-3.73,12.67,12.67,0,0,0,1.31-6v-1a50.1,50.1,0,0,0-1.36-11.62l-.09-.52A4.22,4.22,0,0,1,219.05,289.66Zm9.89,11.16,0-.23q0-1.27,1.13-1.27l1.08.14a1.51,1.51,0,0,1,.28.84.52.52,0,0,1-.28.52,25.16,25.16,0,0,1,3.61.21,7.34,7.34,0,0,1,2.06.54q.89.66.89,1.08t-1,.38l-.61,0q-2.58-.28-4.92-.7l-.14,1.08.14,1h4.27q2.91.75,2.91,2.63,0,1.59-2.25,3.7a4,4,0,0,1-1,.38,5.61,5.61,0,0,1-1.27.14,7.94,7.94,0,0,1-2.62-.52l-.23.84a1.39,1.39,0,0,0,.89,1.22q6.94,2.77,7.78,3.47l0,.61q0,1-1.17,1a4.08,4.08,0,0,1-1.15-.19q-.63-.19-1.9-.7-2.81-2.53-4.27-2.77l-.14,2.39.14,2.48q-.56,2.06-1.17,2.06t-1-2.06a11.69,11.69,0,0,0,.23-2.3q0-.75,0-1.22t-.19-1.36q0,.8-5.67,2.77l-1.73.14q-1.83,0-1.83-.47t2.91-1.73q6.33-1.08,6.33-3.94v-.23a7,7,0,0,1-2.39.42,9.39,9.39,0,0,1-1.31-.07l-2-.35a19.23,19.23,0,0,1-1.29-2.48,5,5,0,0,1-.45-1.87,2.09,2.09,0,0,1,1.08-2h6.33a1.05,1.05,0,0,0,.33-.84,3,3,0,0,0-.33-1.27l-5.67.7q-.66.09-.66-.28a2.16,2.16,0,0,1,.66-1.12,23.52,23.52,0,0,1,2.55-.52A20.47,20.47,0,0,1,228.94,300.82Zm-8.48-9a3.31,3.31,0,0,0-.47,1.41.7.7,0,0,0,.59.73l1.29.35a6.2,6.2,0,0,0,1.59.19,7,7,0,0,0,2.67-.56,1.11,1.11,0,0,0,.7-1,1.52,1.52,0,0,0-.7-1.12l-2.62-.14Zm0,4.17q-.09.38-.21.75a2.12,2.12,0,0,0-.12.52,1,1,0,0,0,.14.49,2.7,2.7,0,0,1,.19.4l1.9.19q.91.09,1.43.09a9,9,0,0,0,1.27-.09q.66-.09,1.08-.19a1.4,1.4,0,0,0,.7-1.08,1.5,1.5,0,0,0-.7-1.08l-2.91,0Zm3.61,10.5-.14.7a2.71,2.71,0,0,0,.21,1,6.18,6.18,0,0,0,.59,1.08l1.27.28a5.36,5.36,0,0,0,1.08.14,4.54,4.54,0,0,0,1.88-.42,2.4,2.4,0,0,0,.33-1.31,3.5,3.5,0,0,0-.33-1.5,4.25,4.25,0,0,0-1.92-.33l-1,0A13.94,13.94,0,0,0,224.07,306.44Zm2.77.7a8.13,8.13,0,0,1,.75.84,4.17,4.17,0,0,1,.23.42l-.23.19a3.23,3.23,0,0,1-.82-.19,14.15,14.15,0,0,1-1.34-.52l0-.23q0-.66.61-.66Zm4.27-.7q-.14.61-.21,1a3.26,3.26,0,0,0-.07.63,3.11,3.11,0,0,0,.28,1.22,8.21,8.21,0,0,0,2.39.42,4,4,0,0,0,1.88-.42,3.07,3.07,0,0,0,.8-1.64,1.29,1.29,0,0,0-.8-1.17,5.31,5.31,0,0,0-1.69-.28,11.27,11.27,0,0,0-1.22.09Q231.66,306.35,231.1,306.44Zm2.81-16.08,1.78-.19q1-.09,1.92-.09t1.59,0q2.91.23,3.19.23a3.3,3.3,0,0,1,1.27,2.77,5.61,5.61,0,0,1-.14,1.27q-.14.61-.42,1.55-.28,2.44-.42,4.2t-.14,4q0,2.11.14,3.82t.42,4.15a29.61,29.61,0,0,1,1.17,6.7q0,1.78-.89,1.78l-.28,0a5.55,5.55,0,0,1-1.55-2.77,17.39,17.39,0,0,1-.61-5l-.09-6.28.09-6.33a17.16,17.16,0,0,0-5.67-.7h-.7a2.6,2.6,0,0,1-1.27.52q-1.55,0-1.55-2.62a17.57,17.57,0,0,0,.19-2.58q0-.42,0-1a9.36,9.36,0,0,0-.16-1.31A4,4,0,0,1,233.91,290.36Zm-.7,16.78q.19-.52.52-.52a1.05,1.05,0,0,1,.84.52q-.89,1.73-1.36,1.73a.75.75,0,0,1-.19-.47,3.67,3.67,0,0,1,.09-.52A3.5,3.5,0,0,0,233.21,307.14Zm1.36-11.2a2.9,2.9,0,0,0-.28.89.59.59,0,0,0,.28.52,9.85,9.85,0,0,0,3.42.75,6,6,0,0,0,3-.75.55.55,0,0,0,.23-.52,1.81,1.81,0,0,0-.23-.89l-3.23,0Zm.8-4.17a2.38,2.38,0,0,0-1,1.59,1.44,1.44,0,0,1,.14.26l.09.26q1.08.28,1.41.33a10,10,0,0,0,2,.23,5.23,5.23,0,0,0,1.27-.14,3.77,3.77,0,0,0,1-.42q.84-.14.84-.7a2.68,2.68,0,0,0-.84-1.41l-2.62-.09Z"/><path class="cls-11" d="M265.13,290.69q1.13.38,1.13,1t-1.87,1.83h-.66a13.54,13.54,0,0,0-1.8-.52,7.07,7.07,0,0,0-1.34-.14q-1,0-1,.66l-.14.84a1,1,0,0,0,0,.38.55.55,0,0,0,.09.14l2.06.7a6.36,6.36,0,0,1,3.8,1,3,3,0,0,1,1.31,2.55l-.14,1.27-1.45,5-1.41,1.41-3.52.66q-.84.23-.84,1.78l.19,1.69,7,.66q2,.42,2,1.22t-2.11,1.69h-1.36a20.29,20.29,0,0,0-5.58-1.08,18.85,18.85,0,0,0-.28,3.28q0,.56.14,2.11t.14,2.58q-.84,3-1.59,3t-1.31-3q0-1.22.12-2.93t.12-1.85q0-1.17,0-1.78t-.19-1.41l-3.7.8-2-.42q-1.36-.47-1.36-.94t1.5-1.27l5.58-.66a2.63,2.63,0,0,0,.42-1.45,5.55,5.55,0,0,0-.42-2l-3.52-.66-1.41-1.41-1.45-7,0-.19q0-1.59,2.91-2.58h2.77l.75-.7a3.85,3.85,0,0,1-.14-.84l.14-1.36h-.19a23.11,23.11,0,0,0-4.08.84h-.66q-1.78-.8-1.78-1.5t1.78-1.36l4.92-.75-.09-1.22q0-3,1.55-3.56,1.59.52,1.59,3.14l-.14,1.64Zm-12,7a3.45,3.45,0,0,0-.37,1.45q0,.56.38.61a2.73,2.73,0,0,0,1.73.75,2.77,2.77,0,0,0,1.78-.75q.47,0,.47-.61a2.74,2.74,0,0,0-.47-1.45Zm.66,5a3.89,3.89,0,0,0-.42,1.36.66.66,0,0,0,.42.66,1.34,1.34,0,0,0,1.13.7,2.13,2.13,0,0,0,.77-.21,7.05,7.05,0,0,0,.84-.42.78.78,0,0,0,.35-.73l-.23-1.36Zm6.42,0a3.07,3.07,0,0,0-.47,1.41.55.55,0,0,0,.47.61,2,2,0,0,0,1.36.7,1.82,1.82,0,0,0,.7-.19,4.16,4.16,0,0,0,.77-.45.85.85,0,0,0,.35-.73,6.74,6.74,0,0,0-.28-1.36Zm0-5a5.13,5.13,0,0,0-.42,1.45.54.54,0,0,0,.42.61,3.06,3.06,0,0,0,1.78.75,2.73,2.73,0,0,0,1.73-.75q.7,0,.7-.52a3,3,0,0,0-.7-1.55l-1.73,0ZM288.43,292q1.22.14,1.22.89t-2,2h-.75l-7-1.36v.7a33.13,33.13,0,0,0,12,5.48,2,2,0,0,1,.84,1.5,2.17,2.17,0,0,1-.84,1.45l-1.69-.19-3.28-1.36-8.39-6.23h-.75l-7.45,6.23a3.76,3.76,0,0,1-2,1q-.7,0-1.08-1l-.19-.61q0-1.27,2.3-2.86l3.52-1.41,3.52-2v-.7l-6.94,1.36h-.8q-1.83-1.31-1.83-1.92,0-.94,1.83-.94l7.73-.7v-2.06H275q-3.61,0-3.61-.75t3.61-1.31l2.77-.7,1.45-.7a8,8,0,0,1,2-.33,3.31,3.31,0,0,1,1.5.33v.52q0,3-2.58,3l-.89,0,0,1.22,0,.84Zm.66,27.23q-.94,2.16-1.5,2.16t-.66-2.16l-.33-8.62-.37-.7a43.93,43.93,0,0,0-7.83-.7,45.81,45.81,0,0,0-5.06.28l-1.36.94-.56,8.81q-.42,1.88-1,1.88t-1.08-1.87l-.7-8.34,0-.33q0-1.78,2.81-3.14,1.27,0,3.8-.14t3.84-.14q1.31,0,3.94.14t3.94.14q2.77,1.41,2.77,3.89v.23Zm-6.37-19.55a4.86,4.86,0,0,1,1.08,2.77,2.93,2.93,0,0,1-1.08,2.2l-1.31.7-1.41.38a6.2,6.2,0,0,1-1.59.19,5.28,5.28,0,0,1-1.45-.19q-.66-.19-1.17-.37l-1.5-.7a7.68,7.68,0,0,1-.59-1.41,4.34,4.34,0,0,1-.21-1.22,3.82,3.82,0,0,1,1.55-3q.84-.09,1.22-.09,1.64-.14,2.11-.14.7,0,2,.12T282,299Zm-6.94,1.41a2.32,2.32,0,0,0-.23.7,5,5,0,0,0,0,.7.91.91,0,0,0,.28.8,6.91,6.91,0,0,0,1.31.59,4.27,4.27,0,0,0,1.31.21,7.94,7.94,0,0,0,3-.8.72.72,0,0,0,.47-.66,4.24,4.24,0,0,0-.47-1.55q-1.27-.19-1.85-.21l-.91,0h-.94A16.89,16.89,0,0,0,275.77,301.14Zm.61,11.16a10.3,10.3,0,0,1,3-.52,7.25,7.25,0,0,1,2.67.52,4.46,4.46,0,0,1,1.27,2.77,2.89,2.89,0,0,1-1.27,2.2,4.71,4.71,0,0,1-2.77,1.08,3.59,3.59,0,0,1-1.38-.28,9.33,9.33,0,0,1-1.48-.8,4.2,4.2,0,0,1-.84-2.39A4.92,4.92,0,0,1,276.38,312.3Zm1.41,1.5L277.6,315a1.86,1.86,0,0,0,.19.84,3,3,0,0,0,1.45.56,2,2,0,0,0,1.31-.56.78.78,0,0,0,.47-.75,2.78,2.78,0,0,0-.47-1.31l-1.31,0Z"/><path class="cls-11" d="M65.48,359.5a4.93,4.93,0,0,0,.25-1.64v-.7l0-.29V338.58a2.13,2.13,0,0,0-.08-.66,1.58,1.58,0,0,0-.14-.68,1.46,1.46,0,0,0-.39-.51l-.45-.25-.16,0-.12,0a1.4,1.4,0,0,1-.49-.21l-.16-.45a.51.51,0,0,1,.21-.41l.45-.29.29-.16.25-.12.41-.21.49-.25.29-.12.29-.16.7-.21.57-.12a.74.74,0,0,1,.57.29l.21.66v22.48l0,.37v.74l.12,1.23a1,1,0,0,0,.45.74l.25.12.25.12.53.33a.66.66,0,0,1,.25.53.63.63,0,0,1-.23.51,1.49,1.49,0,0,1-.68.27H67.65l-.53,0-2.26,0h-.12a1,1,0,0,1-.57-.16.89.89,0,0,1-.33-.62l.12-.41.37-.29A2.38,2.38,0,0,0,65.48,359.5Z"/><path class="cls-11" d="M82.46,347.32a5,5,0,0,0-3.2-1.35,5.27,5.27,0,0,0-1.89.29l-1.35.53-.82.49-.74.29a.6.6,0,0,0-.25.08h-.41a1.13,1.13,0,0,1-.74-.21q-.21-.08-.33-.49a1.83,1.83,0,0,1,1-1.6,6.79,6.79,0,0,1,2.32-.86l1.44-.21,1.23-.08h.12A9.17,9.17,0,0,1,84.33,346a5.83,5.83,0,0,1,2.48,5v6.23l0,.12v.57l0,.9a2,2,0,0,0,.21.9l.37.41.53.25h0l.62.29a.65.65,0,0,1,.29.57.67.67,0,0,1-.23.55,1.49,1.49,0,0,1-.68.27H85.25a.79.79,0,0,1-.64-.27,1.2,1.2,0,0,1-.27-.68l0-.16v-1.89a8.78,8.78,0,0,1-2.71,2.63,7.19,7.19,0,0,1-3.73.9H77.7a6.91,6.91,0,0,1-4-1.31,4.94,4.94,0,0,1-1.46-1.52,3.94,3.94,0,0,1-.51-2.05,5.84,5.84,0,0,1,2.63-5.27,13,13,0,0,1,5.82-2l.78,0,.78,0h.57l.57,0,.53,0H84A4.6,4.6,0,0,0,82.46,347.32Zm.37,4.68a6.91,6.91,0,0,0-1.19.08l-1.19.12a10.45,10.45,0,0,0-3.92,1.52,4,4,0,0,0-1.78,3.61,3.07,3.07,0,0,0,1.11,2.38,4,4,0,0,0,2.5.9,6.41,6.41,0,0,0,4-1.31,4.31,4.31,0,0,0,1.74-3.65v-3.53Z"/><path class="cls-11" d="M97.51,345.06a7.64,7.64,0,0,1,3.61-.82q3.28,0,4.76,1.83a7.7,7.7,0,0,1,1.48,5v6.23l0,.37V358l0,.9a2,2,0,0,0,.21.9.61.61,0,0,0,.29.41l.53.25.53.33a.61.61,0,0,1,.29.53.63.63,0,0,1-.23.51,1.49,1.49,0,0,1-.68.27h-1.89l-.62,0-2.05,0a1.63,1.63,0,0,1-.74-.16,1,1,0,0,1-.29-.62l.12-.33.29-.29.25-.16.33-.21a2.56,2.56,0,0,0,.64-.78,2.87,2.87,0,0,0,.31-1.44v-.78l0-.37v-5.78a6.24,6.24,0,0,0-.88-3.53q-.88-1.31-3.51-1.31a5.65,5.65,0,0,0-3.57,1.25,4.07,4.07,0,0,0-1.6,3.38v6.36l0,.41v.37l0,.86a1.82,1.82,0,0,0,.21.82.72.72,0,0,0,.33.45l.49.21.08,0,.57.29a.54.54,0,0,1,.25.53.63.63,0,0,1-.23.51,1.55,1.55,0,0,1-.72.27h-1.8l-.62,0-2.21,0h-.12a1,1,0,0,1-.57-.16.89.89,0,0,1-.33-.62l.12-.41.41-.29.21-.08.25-.16a1.92,1.92,0,0,0,.68-.72,3.37,3.37,0,0,0,.31-1.66v-.7l0-.33v-7.63a2.27,2.27,0,0,0-.33-1.39,1.91,1.91,0,0,0-.7-.57l-.25-.12-.21-.08-.45-.21-.16-.45a1,1,0,0,1,.16-.41,1.35,1.35,0,0,1,.45-.53l.45-.37.49-.37.78-.41.57-.16a1,1,0,0,1,.82.55,4.5,4.5,0,0,1,.49,1.21l.12.74a1.6,1.6,0,0,0,.08.57A10.79,10.79,0,0,1,97.51,345.06Z"/><path class="cls-11" d="M114.17,347.11A10.25,10.25,0,0,1,117,345a7.17,7.17,0,0,1,3.32-.78,6.28,6.28,0,0,1,5.33,2.58,9.44,9.44,0,0,1,1.93,5.78,11.39,11.39,0,0,1-2.26,7.05,7.71,7.71,0,0,1-6.56,3q-4.06,0-5.7-2.05a9.84,9.84,0,0,1-1.56-5.91V339.56a5.74,5.74,0,0,0-.31-2.36,2.07,2.07,0,0,0-.72-.8l-.25,0a.6.6,0,0,1-.25-.08l-.37-.12-.16-.45.12-.29.33-.29.7-.41.86-.37,1.31-.49.66-.21a.74.74,0,0,1,.57.29l.21.62v12.55Zm0,7.51v.45l0,.33a5.75,5.75,0,0,0,.29,1.87,10,10,0,0,0,.9,1.87,3.86,3.86,0,0,0,3.4,1.76A4.63,4.63,0,0,0,123,358.8a10.67,10.67,0,0,0,1.13-2.28,7.3,7.3,0,0,0,.39-2.4v-.45a7.22,7.22,0,0,0-.08-1.23,4.12,4.12,0,0,0-.21-1.31,8.81,8.81,0,0,0-1.5-3.47,3.68,3.68,0,0,0-3.18-1.58,5.14,5.14,0,0,0-3,1,9.84,9.84,0,0,0-2.34,2.3Z"/><path class="cls-11" d="M141,347.32a5,5,0,0,0-3.2-1.35,5.27,5.27,0,0,0-1.89.29l-1.35.53-.82.49-.74.29a.6.6,0,0,0-.25.08h-.41a1.13,1.13,0,0,1-.74-.21q-.21-.08-.33-.49a1.83,1.83,0,0,1,1-1.6,6.79,6.79,0,0,1,2.32-.86l1.44-.21,1.23-.08h.12a9.17,9.17,0,0,1,5.48,1.78,5.83,5.83,0,0,1,2.48,5v6.23l0,.12v.57l0,.9a2,2,0,0,0,.21.9l.37.41.53.25h0l.62.29a.65.65,0,0,1,.29.57.67.67,0,0,1-.23.55,1.49,1.49,0,0,1-.68.27h-2.71a.79.79,0,0,1-.64-.27,1.2,1.2,0,0,1-.27-.68l0-.16v-1.89a8.78,8.78,0,0,1-2.71,2.63,7.19,7.19,0,0,1-3.73.9h-.16a6.91,6.91,0,0,1-4-1.31,4.94,4.94,0,0,1-1.46-1.52,3.94,3.94,0,0,1-.51-2.05,5.84,5.84,0,0,1,2.63-5.27,13,13,0,0,1,5.82-2l.78,0,.78,0h.57l.57,0,.53,0h.57A4.6,4.6,0,0,0,141,347.32Zm.37,4.68a6.91,6.91,0,0,0-1.19.08l-1.19.12a10.45,10.45,0,0,0-3.92,1.52,4,4,0,0,0-1.78,3.61,3.07,3.07,0,0,0,1.11,2.38,4,4,0,0,0,2.5.9,6.41,6.41,0,0,0,4-1.31,4.31,4.31,0,0,0,1.74-3.65v-3.53Z"/><path class="cls-11" d="M161.87,340.22v-.29l0-.33v-.66a3.18,3.18,0,0,0-.33-1.68,1.74,1.74,0,0,0-.66-.74l-.29-.12-.25-.12-.37-.21a.55.55,0,0,1,.08-.78l.45-.29.29-.12.25-.12.37-.21.49-.25.33-.16.33-.16.66-.21.62-.12a.74.74,0,0,1,.57.29l.21.62v22.52l0,.37v.9a4.12,4.12,0,0,0,.14,1.15,1,1,0,0,0,.43.66l.12,0,.16.12.21.08.53.33a.66.66,0,0,1,.25.53.62.62,0,0,1-.27.57,2.14,2.14,0,0,1-.76.25H163.1a.78.78,0,0,1-.72-.37,2,2,0,0,1-.27-.9v-1a8.27,8.27,0,0,1-2.48,2.09,6.7,6.7,0,0,1-3.22.74,7.08,7.08,0,0,1-5.58-2.42,11.1,11.1,0,0,1-1.72-2.73,7.48,7.48,0,0,1-.62-3v-.66a10,10,0,0,1,.55-3.34,14.13,14.13,0,0,1,1.7-3.26,7,7,0,0,1,6.11-3,10.06,10.06,0,0,1,1.8.14,5.47,5.47,0,0,1,1.56.55l.78.41.86.49Zm-2.21,6.28a5.79,5.79,0,0,0-2.38-.49,4.53,4.53,0,0,0-3.88,1.87,9.43,9.43,0,0,0-1.74,4.12,3.89,3.89,0,0,1-.08.9l0,.86a8.45,8.45,0,0,0,1.35,4.66,4.7,4.7,0,0,0,4.27,2.11l.82,0,.94-.25a6.11,6.11,0,0,0,2-1,2.22,2.22,0,0,0,.92-1.83v-9.84Z"/><path class="cls-11" d="M179.09,347.32a5,5,0,0,0-3.2-1.35,5.27,5.27,0,0,0-1.89.29l-1.35.53-.82.49-.74.29a.6.6,0,0,0-.25.08h-.41a1.13,1.13,0,0,1-.74-.21q-.21-.08-.33-.49a1.83,1.83,0,0,1,1-1.6,6.79,6.79,0,0,1,2.32-.86l1.44-.21,1.23-.08h.12A9.17,9.17,0,0,1,181,346a5.83,5.83,0,0,1,2.48,5v6.23l0,.12v.57l0,.9a2,2,0,0,0,.21.9l.37.41.53.25h0l.62.29a.65.65,0,0,1,.29.57.67.67,0,0,1-.23.55,1.49,1.49,0,0,1-.68.27h-2.71a.79.79,0,0,1-.64-.27,1.2,1.2,0,0,1-.27-.68l0-.16v-1.89a8.78,8.78,0,0,1-2.71,2.63,7.19,7.19,0,0,1-3.73.9h-.16a6.91,6.91,0,0,1-4-1.31,4.94,4.94,0,0,1-1.46-1.52,3.94,3.94,0,0,1-.51-2.05,5.84,5.84,0,0,1,2.63-5.27,13,13,0,0,1,5.82-2l.78,0,.78,0h.57l.57,0,.53,0h.57A4.6,4.6,0,0,0,179.09,347.32Zm.37,4.68a6.91,6.91,0,0,0-1.19.08l-1.19.12a10.45,10.45,0,0,0-3.92,1.52,4,4,0,0,0-1.78,3.61,3.07,3.07,0,0,0,1.11,2.38,4,4,0,0,0,2.5.9,6.41,6.41,0,0,0,4-1.31,4.31,4.31,0,0,0,1.74-3.65v-3.53Z"/><path class="cls-11" d="M188.65,359.5a4.93,4.93,0,0,0,.25-1.64v-.7l0-.29V338.58a2.13,2.13,0,0,0-.08-.66,1.58,1.58,0,0,0-.14-.68,1.46,1.46,0,0,0-.39-.51l-.45-.25-.16,0-.12,0a1.4,1.4,0,0,1-.49-.21l-.16-.45a.51.51,0,0,1,.21-.41l.45-.29.29-.16.25-.12.41-.21.49-.25.29-.12.29-.16.7-.21.57-.12a.74.74,0,0,1,.57.29l.21.66v22.48l0,.37v.74l.12,1.23a1,1,0,0,0,.45.74l.25.12.25.12.53.33a.66.66,0,0,1,.25.53.63.63,0,0,1-.23.51,1.49,1.49,0,0,1-.68.27h-1.64l-.53,0-2.26,0h-.12a1,1,0,0,1-.57-.16.89.89,0,0,1-.33-.62l.12-.41.37-.29A2.38,2.38,0,0,0,188.65,359.5Z"/><path class="cls-11" d="M205.63,347.32a5,5,0,0,0-3.2-1.35,5.27,5.27,0,0,0-1.89.29l-1.35.53-.82.49-.74.29a.6.6,0,0,0-.25.08H197a1.13,1.13,0,0,1-.74-.21q-.21-.08-.33-.49a1.83,1.83,0,0,1,1-1.6,6.79,6.79,0,0,1,2.32-.86l1.44-.21,1.23-.08H202A9.17,9.17,0,0,1,207.5,346a5.83,5.83,0,0,1,2.48,5v6.23l0,.12v.57l0,.9a2,2,0,0,0,.21.9l.37.41.53.25h0l.62.29a.65.65,0,0,1,.29.57.67.67,0,0,1-.23.55,1.49,1.49,0,0,1-.68.27h-2.71a.79.79,0,0,1-.64-.27,1.2,1.2,0,0,1-.27-.68l0-.16v-1.89a8.78,8.78,0,0,1-2.71,2.63,7.19,7.19,0,0,1-3.73.9h-.16a6.91,6.91,0,0,1-4-1.31,4.94,4.94,0,0,1-1.46-1.52,3.94,3.94,0,0,1-.51-2.05,5.84,5.84,0,0,1,2.63-5.27,13,13,0,0,1,5.82-2l.78,0,.78,0h.57l.57,0,.53,0h.57A4.6,4.6,0,0,0,205.63,347.32ZM206,352a6.91,6.91,0,0,0-1.19.08l-1.19.12a10.45,10.45,0,0,0-3.92,1.52,4,4,0,0,0-1.78,3.61A3.07,3.07,0,0,0,199,359.7a4,4,0,0,0,2.5.9,6.41,6.41,0,0,0,4-1.31,4.31,4.31,0,0,0,1.74-3.65v-3.53Z"/><path class="cls-11" d="M220.68,345.06a7.64,7.64,0,0,1,3.61-.82q3.28,0,4.76,1.83a7.7,7.7,0,0,1,1.48,5v6.23l0,.37V358l0,.9a2,2,0,0,0,.21.9.61.61,0,0,0,.29.41l.53.25.53.33a.61.61,0,0,1,.29.53.63.63,0,0,1-.23.51,1.49,1.49,0,0,1-.68.27h-1.89l-.62,0-2.05,0a1.63,1.63,0,0,1-.74-.16,1,1,0,0,1-.29-.62L226,361l.29-.29.25-.16.33-.21a2.56,2.56,0,0,0,.64-.78,2.87,2.87,0,0,0,.31-1.44v-.78l0-.37v-5.78a6.24,6.24,0,0,0-.88-3.53q-.88-1.31-3.51-1.31a5.65,5.65,0,0,0-3.57,1.25,4.07,4.07,0,0,0-1.6,3.38v6.36l0,.41v.37l0,.86a1.82,1.82,0,0,0,.21.82.72.72,0,0,0,.33.45l.49.21.08,0,.57.29a.54.54,0,0,1,.25.53.63.63,0,0,1-.23.51,1.55,1.55,0,0,1-.72.27h-1.8l-.62,0-2.21,0h-.12a1,1,0,0,1-.57-.16.89.89,0,0,1-.33-.62l.12-.41.41-.29.21-.08.25-.16a1.92,1.92,0,0,0,.68-.72,3.37,3.37,0,0,0,.31-1.66v-.7l0-.33v-7.63a2.27,2.27,0,0,0-.33-1.39,1.91,1.91,0,0,0-.7-.57l-.25-.12-.21-.08-.45-.21-.16-.45a1,1,0,0,1,.16-.41,1.35,1.35,0,0,1,.45-.53l.45-.37.49-.37.78-.41.57-.16a1,1,0,0,1,.82.55,4.5,4.5,0,0,1,.49,1.21l.12.74a1.6,1.6,0,0,0,.08.57A10.79,10.79,0,0,1,220.68,345.06Z"/><path class="cls-11" d="M234.3,351v-1.6l-.12-.86a1.13,1.13,0,0,0-.21-.74l-.41-.33-.57-.21h0l-.74-.25a.62.62,0,0,1-.33-.57l.16-.37.49-.41.53-.33.66-.33,1.15-.49.66-.29.25,0,.21,0q.74,0,.9,1.56l.16,3.86v10.5l0,1a9.37,9.37,0,0,1-.12,1.58q-.12.72-.37,1.74a8.05,8.05,0,0,1-1.39,3.08l-.08.12a5.16,5.16,0,0,1-.59.66q-.35.33-1,.84a3.43,3.43,0,0,1-1.76.64h-.21l-.21,0a1.94,1.94,0,0,1-.9-.41,1.39,1.39,0,0,1-.49-.94,1.43,1.43,0,0,1,.39-1,1.68,1.68,0,0,1,1-.49l.41,0,.45.12.37.12.37,0a.71.71,0,0,0,.45-.16.84.84,0,0,0,.43-.41,6.36,6.36,0,0,0,.35-1.07l.16-1.44V351Zm2.26-10.34a1.87,1.87,0,0,1-1.48.66,2,2,0,0,1-1.37-.51,2.18,2.18,0,0,1-.72-1.42,2.34,2.34,0,0,1,.57-1.52,1.75,1.75,0,0,1,1.39-.7,2.26,2.26,0,0,1,1.54.55,1.84,1.84,0,0,1,.64,1.46A2.09,2.09,0,0,1,236.56,340.71Z"/><path class="cls-11" d="M244.23,359.66a4.65,4.65,0,0,0,.25-1.68v-.7l0-.33v-7.3l-.12-1a1.26,1.26,0,0,0-.25-.78.78.78,0,0,0-.41-.37l-.57-.21H243l-.7-.25a.61.61,0,0,1-.29-.53l.16-.37.49-.41.53-.33.66-.33,1.15-.49.66-.29.21-.08.21,0h.12l.08,0q.33,0,.57.86a8.39,8.39,0,0,1,.18.82,5,5,0,0,1,.06.82l0,.9v9.64l0,.37V358l0,.9a2,2,0,0,0,.21.9l.37.41.49.25h.08l.57.29a.65.65,0,0,1,.29.57.63.63,0,0,1-.23.51,1.55,1.55,0,0,1-.72.27H247.1L246,362l-2.58,0a1.54,1.54,0,0,1-.7-.16,1,1,0,0,1-.29-.62v-.12a.94.94,0,0,1,.16-.37l.29-.21A1.91,1.91,0,0,0,244.23,359.66Zm2.54-18.91a1.93,1.93,0,0,1-1.48.62,2.46,2.46,0,0,1-1.44-.49,1.76,1.76,0,0,1-.62-1.39,2.54,2.54,0,0,1,.51-1.5,1.64,1.64,0,0,1,1.42-.72,2.34,2.34,0,0,1,1.52.53,1.75,1.75,0,0,1,.66,1.44A2.34,2.34,0,0,1,246.77,340.75Z"/><path class="cls-11" d="M261.41,347.32a5,5,0,0,0-3.2-1.35,5.27,5.27,0,0,0-1.89.29l-1.35.53-.82.49-.74.29a.6.6,0,0,0-.25.08h-.41a1.13,1.13,0,0,1-.74-.21q-.21-.08-.33-.49a1.83,1.83,0,0,1,1-1.6,6.79,6.79,0,0,1,2.32-.86l1.44-.21,1.23-.08h.12a9.17,9.17,0,0,1,5.48,1.78,5.83,5.83,0,0,1,2.48,5v6.23l0,.12v.57l0,.9a2,2,0,0,0,.21.9l.37.41.53.25h0l.62.29a.65.65,0,0,1,.29.57.67.67,0,0,1-.23.55,1.49,1.49,0,0,1-.68.27H264.2a.79.79,0,0,1-.64-.27,1.2,1.2,0,0,1-.27-.68l0-.16v-1.89a8.78,8.78,0,0,1-2.71,2.63,7.19,7.19,0,0,1-3.73.9h-.16a6.91,6.91,0,0,1-4-1.31,4.94,4.94,0,0,1-1.46-1.52,3.94,3.94,0,0,1-.51-2.05,5.84,5.84,0,0,1,2.63-5.27,13,13,0,0,1,5.82-2l.78,0,.78,0h.57l.57,0,.53,0h.57A4.6,4.6,0,0,0,261.41,347.32Zm.37,4.68a6.91,6.91,0,0,0-1.19.08l-1.19.12a10.45,10.45,0,0,0-3.92,1.52,4,4,0,0,0-1.78,3.61,3.07,3.07,0,0,0,1.11,2.38,4,4,0,0,0,2.5.9,6.41,6.41,0,0,0,4-1.31,4.31,4.31,0,0,0,1.74-3.65v-3.53Z"/><path class="cls-11" d="M286.06,359.7a8.25,8.25,0,0,1-6.64,2.91,9.47,9.47,0,0,1-8.65-5.29,7.67,7.67,0,0,1-.78-3.4,10,10,0,0,1,2.6-6.71,8.24,8.24,0,0,1,6.5-3,9.59,9.59,0,0,1,6.48,2.46,9,9,0,0,1,2.21,2.77,7.47,7.47,0,0,1,.78,3.42A10.18,10.18,0,0,1,286.06,359.7Zm-2.17-11.57a5.58,5.58,0,0,0-4.63-2.13,5.27,5.27,0,0,0-4.63,2.34,9.91,9.91,0,0,0-1.17,2.42,8.5,8.5,0,0,0-.43,2.67v.45a7.67,7.67,0,0,0,1.66,4.84,5.9,5.9,0,0,0,9.29-.27,8.89,8.89,0,0,0,1.64-5.11V353A7.66,7.66,0,0,0,283.89,348.14Z"/></g></g></svg>