<svg xmlns="http://www.w3.org/2000/svg" viewBox="0 0 128 128"><defs><style>.cls-1{fill:#fff;}.cls-2{fill:#092696;}</style></defs><title>hsinchu</title><g id="圖層_2" data-name="圖層 2"><circle class="cls-1" cx="64" cy="64" r="58.92"/></g><g id="圖層_1" data-name="圖層 1"><path class="cls-2" d="M111.21,45.49c-.58,1.43-2,2.11-2.9,3.36-.08,1.37-1.07,1.93-2.49,2l.95,1.05-1.46.52-.07,1.2c0,.8,1,1,.64,2.07l-1.36.79V60l-.75.81c.28.38.83.58.75,1.05-.12.82-.79,1-1.13,1.54h-2.22l-.82.77H98.89c-.7.76-.2,1.67-.39,2.73L97,68.06c.34,1-.41,1.23-.68,1.74q0,.93,0,1.86a5.67,5.67,0,0,0-.32.61c-.73,1.9-2.4,3-3.72,4.47H90.72l-1-1v-1.9c-.11-.33-.12-.48-.19-.54-1.59-1.19-1.82-3.3-3.13-4.79l-1.21,1.12v3.08c-.81.47-.93-.77-1.56-.44-.73.07-.89.84-1.39,1-.37.95.65,1.29.88,1.94l-.92,1.25c0,.62,0,1.24,0,1.85L81,80.53H78.79L77.7,81.61v2.3l-1.27,1H75l-1.77,2.3,0,1c-.33,1.16-1.76,1-2.52,1.9H67.54l-.77-.77-1,1.58H63.86L62,89c0-.84,0-1.83,0-2.82,0-.09-.14-.19-.27-.35H60.13c-.51.29-.26.71-.39,1.11-.48.7-1.38,0-2,.46a3.24,3.24,0,0,1-1.33,2.07H55l-.77-.7-1.86,1.82v.76l-1.09,1.09H50l-1.36,1.16c-.1,1.11.72,1.35,1.26,1.88h1.29l1.17,1.06-1.11,1.11H47.51l-.76-.71c-.53.26-.21.9-.53,1.25-.5.55-1,1.06-1.59,1.6-.72.33-1.77-.24-2.26.78a5.07,5.07,0,0,1-2.61-.12l-.16-1.72A1.47,1.47,0,0,1,39,97.09l1.37-.9V94.31l-1-1.06H37.09l-.67.55c-1.2.65-2-.59-3-.67l-.87.81h-2.2l-.78.72h-1.5l-1.42-1.42-1.42-.06c-.77-.26-1-1.34-1.94-1.47-.61-.11-.78.5-1.18.73-.33-.49-1-.71-1.11-1.45.06-.93,1.09-1.18,1.46-1.93-.85-.67-.74-2.05-1.84-2.54l-2.16,2.16H17c-.77-.3-.38-1.48-1.13-1.94,0-.62,0-1.24,0-1.64L18,82.89v-2l-.72-.77c.86-.68.75-2.06,1.86-2.59H20c1.34-2.06,4.08-2.57,5.45-5.14V71.08a3.38,3.38,0,0,1-2.15-1.36V69c2-1.12,4.52-1.64,5.17-4.4V62l-2.17-1.74-.1-1c-.24-.41-.64-.29-1-.31l-1.54,1.47H21.41c-.43-.26-.37-.65-.37-1,.9-1.38,3-1.46,3.61-3.17l-.71-.71,1.16-1c1.16-.06,1.73,1.34,2.83.75a1.21,1.21,0,0,0,.34-.16c.42-.43.06-1.26.93-1.54v-3.1l1.46-1.46V45.58l-2.57-.14c-.4-.24-.31-.63-.33-1.34l-2.18-1.73c-.18-1.44.9-1.69,1.36-2.37.07-.83.45-1.75-.64-2.19V36.24l-.76-.82c.78-.34.51-1.34,1.06-1.77.74-.58.2-1.4.49-2s.68-.29,1-.33l.82.76h4.45c.74.7-.15,2.06,1.09,2.55l-.72.8c1.5.37,2.28,1.69,3.42,2.63h9.64c.09,0,.18.16.3.29l-.64.74,1.36,2.35c-.29.29-.29.29-2.46.3-.5-.29-.78-1-1.59-.73l-1,1.08.68.79v2.2c-.68.39-.65,1.21-1,1.8S42,48,41.55,48.4c-.7.61-.16,1.42-.39,1.84-.36.64-.78.43-1.13.48-.82.75-.25,1.27.34,1.82v2.25c-.19.67-1.11.16-1.44.74-.23.4-.85.56-.76,1.17s.75.92,1.09,1.44H44.5l.9-.84,1.23,1.58c1.52.18,1.63-1.28,2.55-1.52l.24-1.12c.24-.41.64-.29,1.09-.32l1,1.22c.11.65.3,1.51-.65,2.11v1.51c.36.66,1.06.25,1.59.41a5.19,5.19,0,0,1,1.08.63l.61-.61h2.08c.61-.27.87-1.06,1.64-.78.86.71.31,1.24-.28,1.81v3.66c.38.67.79,1.37,1.17,2.08s.5,1.62,1.4,2.1h1.35c.17-.15.42-.27.49-.46a6.35,6.35,0,0,1,2-3.26H65.4c.8-.55-.07-1.5.66-2.13h5.36l1.39-2a1.2,1.2,0,0,0,.29-1.52,4.57,4.57,0,0,1-.51-3l.57-.57V54.22c.83-.64.61-1.88,1.54-2.39s1.79-.66,2.23-1.62V49a3.28,3.28,0,0,1,.63-.73c1-.64,2.08-1,3-1.57l.23-1.11h3l1-.77H87l1.08,1v4.5c.64.67,1.3.28,1.91.42l1-1.11c.12-.74-.16-1.69.79-2.22V45.84l1.19-1c.74-.19,1.88.33,2.2-.8.69,0,.69,0,1.47.74h1.48L99,44h1.92l2.73,1.42h1.82l.9.73c1.27.56,2.12-.66,3.23-.9.31-.07.43-.62.91-.51C111.17,44.54,111.38,44.83,111.21,45.49Z"/><path class="cls-2" d="M111.21,45.49a.63.63,0,0,0-.75-.75c0-.76.75-.91,1.06-1.49.72,0,1.45,0,2.18,0,.1,0,.2.12.38.23l.09,1C113.1,44.65,112.4,45.77,111.21,45.49Z"/></g></svg>