<?xml version="1.0" encoding="utf-8"?>
<!-- Generator: Adobe Illustrator 20.1.0, SVG Export Plug-In . SVG Version: 6.00 Build 0)  -->
<svg version="1.1" xmlns="http://www.w3.org/2000/svg" xmlns:xlink="http://www.w3.org/1999/xlink" x="0px" y="0px"
	 viewBox="0 0 128 128" style="enable-background:new 0 0 128 128;" xml:space="preserve">
<style type="text/css">
	.st0{fill:#FFFFFF;}
	.st1{fill:#092696;}
</style>
<g id="圖層_2">
	<circle class="st0" cx="64" cy="64" r="58.9"/>
</g>
<g id="圖層_1" xmlns:sketch="http://www.bohemiancoding.com/sketch/ns">
	<title>miaoli</title>
	<desc>Created with Sketch.</desc>
	<g id="cities" sketch:type="MSPage">
		<g id="county" transform="translate(-384.000000, -128.000000)" sketch:type="MSArtboardGroup">
			<path id="miaoli" sketch:type="MSShapeGroup" class="st1" d="M448.5,160.9l0.7,0.3h1.3l0.4,0.5l0.7-0.3l0.6-0.5l1.6-0.1l-0.4,0.5
				l0.6,0.3l-0.5,0.6l-0.1,0.7l-0.4,0.6l-0.2,0.6l0.9,0.3l0.1,0.8l0.7,1.3l0.6,0.6l0.4,0.7l1.5,1l0.8,0.1l0.5,0.6l0.1,0.8l0.8,0.3
				l0.8,0.1l0.9,1.4l0.6,0.4l0.7,0.2l0.4,0.7l1.1,0.8l0.7-0.4l0.9-0.2l0.4,0.2l0.6,1.4l0.8,0.2l0.5,1.5l0.6,0.3l-0.2,0.7l-0.4,0.6
				l-0.1,0.8l-0.5,0.6l-0.5,1.9l-0.9,1.5l1.2,1l0.7,1.3l0.1,0.8l-0.2,0.7l-1,1l-0.3,0.7v0.9l0.4,0.8v1h2.7l1.5,0.3l1.5-0.6l1-0.8
				h0.9l0.7,0.2l0.6-0.2l3.4,0.2l0.6,0.5h0.8l0.6-0.3h1.9l1.2-0.8l0.7-0.2l1.6,0.1l0.5,0.7l-0.1,1.3l0.2,0.6l0.7,0.4l0.3,0.5
				l0.7,0.3l0.3,0.7l1,1.1l0.3,0.7l0.5,0.6l0.7,0.4l0.4,0.6v1.7l0.3,0.3l-0.1,0.6l0,1.7l-0.8,0.4l-0.9,0.7l-0.6,0.8l-0.1,1.1
				l-1.5,2.5v1.2l-1,0.2h-1.2l-0.8-1.1l0.4-0.6l-1.2-0.5l-0.9,0.4l-0.3,1l-0.6,0.8l-1,0.3l-2.2,3l-0.9,0.3H476l-0.8,0.6l-0.3,0.9
				l-0.3,0.1l-0.9,1l-0.2,1.1l-1,0.2l-1.5,1.3l-1,0.2l-2.2-0.2l-2,0.7l-2.4,3l-1.2,0.1l-0.9-0.5l-1.4-1.4l-0.2-1.1l-0.8-0.6
				l-1.2-1.8l-0.7,0.2h-1.2l-0.9-0.4l-2.2-0.2l-2.7-1l-2.2-0.1l-1,0.4l-0.6,0.6v1.2l0.4,0.9l0.2,2.2l-0.4,0.9l-0.8,0.6l-1,0.3
				l-4.6-0.2l-0.9,0.4h-2.4l-2.3-0.7l-1.4-1.4l-0.5-0.9l-0.7-0.6l-5-1l-1.5-1.3l-1.1-0.3l-0.6-0.9l-1.6-0.9l-0.6-0.7l-1-0.3
				l-0.6-0.7l-0.4-0.2l-1.4-0.2l-0.6-0.8l-1.4-1l-3.4-4.3h-0.2l-0.4-0.8l-2-0.8l-1-1.7l-0.2-0.9l-1.7-2.1l0.7-0.3l1.7-1.4l1.4-1.8
				l0.3-0.6l2.3-3l0.6-1.4l0.6-0.9l4.2-12.6l1-1.3l0.1-0.3l0.5-0.6l1.4-0.3l1.2,1l0.5,0.7l0.2-0.7l-0.2-0.9l1.2-0.7h0.6l0.5,0.1
				l-0.1-0.7l-0.7-0.3l-0.7-0.5l0.4-0.4l0.3-1.5l1.4-2.4l0.7-0.1l0.9-1.1l2.5-0.1l2-0.9h1.1l1.8,0.6l0.5,0.4l1,0.2l0.6-0.3l-0.3-0.4
				l-0.9-0.1l-0.7-0.3l-0.3-0.7l-0.8-0.1l0.1-0.8l0.4-0.5l0.7-0.3l2.5-2.1l0.2-0.7l0.4-0.5l0.2-0.7v-0.9l0.6-1.2l0.6-0.5l0.4-0.6
				l0.9-0.4l0.2,0.4l0.6,0.3h0.9l0.6-0.2l0.5-0.4l0.6,0.2l0.9,1l0.2,0.7v0.7l1.8,0.5L448.5,160.9L448.5,160.9z"/>
		</g>
	</g>
</g>
</svg>
