<?xml version="1.0" encoding="utf-8"?>
<!-- Generator: Adobe Illustrator 20.1.0, SVG Export Plug-In . SVG Version: 6.00 Build 0)  -->
<svg version="1.1" xmlns="http://www.w3.org/2000/svg" xmlns:xlink="http://www.w3.org/1999/xlink" x="0px" y="0px"
	 viewBox="0 0 128 128" style="enable-background:new 0 0 128 128;" xml:space="preserve">
<style type="text/css">
	.st0{fill:#FFFFFF;}
	.st1{fill:#092696;}
</style>
<g id="圖層_2">
	<circle class="st0" cx="64" cy="64" r="58.9"/>
</g>
<g id="圖層_1" xmlns:sketch="http://www.bohemiancoding.com/sketch/ns">
	<title>nantou</title>
	<desc>Created with Sketch.</desc>
	<g id="cities" sketch:type="MSPage">
		<g id="county" transform="translate(0.000000, -128.000000)" sketch:type="MSArtboardGroup">
			<path id="nantou" sketch:type="MSShapeGroup" class="st1" d="M31.5,199.4l1.6,3.4l-0.2,2.2l-0.9-0.2l-0.2,1l0.1,2.3l0.5,0.8
				l0.1,1.1L32,212l-0.2,0.4l-0.1,0.1l-0.6,1.8l0.1,2.3l1.5-1.1l0.2,1l0.5,0.9l0.7,0.5l1.1,0.1l1-0.2l0.2-1l1,0.2l0.9-0.2l0.3-0.9
				l1,0.2l0.7,0.6l0,1l2-0.2l3.7,1.4h1.2l1,0.2l0.4,0.8l0.1,2.7l-0.2,1l-0.9,0.7v1.2l0.5,0.8l0.7,0.6l0.2,2.3l0.8,1.8l0.6,0.7
				l3.6,0.4l1.8-0.7l3.5,0.3l0.9,0.3l3.8,0.2l2,0.7h0.2l0.8,0.6l0.4,2l0.3,0.2l0.4-0.4l1-0.2l1-0.6l1-0.2l0.2-1.1l-0.3-1l-0.7-0.6
				l0.6-0.6l0.2-1l0.6-0.7l0.7-0.5l0.2-1l0.7-0.5l1.1,0.1l0.9-0.4h1.2l0.4-0.2l0.8,0.5l1,0.2l1.5-1.3v-2.4l0.2-1l0.7-0.5l-0.7-2
				l0.8-0.4l1.2,0.3l0.9-0.4l0.5-0.7l1-0.5l1.4-0.1l1.2-2.6l0.4-3.3l0.4-0.8v-1.2l0.6-1.8v-3l-0.8-0.7l-0.1-1.1l0.2-0.9l-2.6-1.8
				l0.1-1.1l1-0.2l1-0.7v-0.5l-0.2-1l0.2-1.1l0.7-0.5l0.3-1l0.1-1.2l0.3-1l0.6-0.8l0.1-1.2l0.7-0.7l1-0.2l-0.2-1.8l-0.6-1l1.4-1.2
				l-0.1-1l-0.3-1v-1.2l0.2-0.6v-2.4l-0.6-0.8l-0.3-0.1v-1.1l1.9-4.1l0.1-2.3l0.7-0.7l0.8-0.4l0.5-0.8l0.8-0.4l0.6-1.1l0.2-0.8
				l0.1-1.1l-0.5-0.7l-1.1-0.2l-0.3-0.9l-0.6-0.6l-1.2-0.4l-0.2-0.3l-0.1-2l0.9-2.1l1-0.2l0.6-0.6l0.9-0.4l1.2-1.2h1.2L99,156
				l-0.5-1.8L98,154l-1.5-0.3l-0.4-0.4l-1.5-0.2l-0.3,0.5l-1.6-0.1l-0.7-0.2l-0.3-0.5l-1-0.7h-0.3l-0.7,1.2l-0.2,0.7l-0.4,0.7
				l-0.6,0.2l-0.8-0.3l-0.5-0.3l-1.3,0.6h-0.8l-0.6,0.3l-0.3,0.6l-1.4-0.4l-0.4-0.5l-0.6-0.3l-0.5,0.3l-0.4,0.5l-0.8,0.1l-0.2,0.6
				l-0.4,0.6l-0.5,0.4l-3.3,0.1l-0.6,0.3l-0.2,0.7l-0.4,0.6l-0.6,0.3l-0.4,0.5l-0.6,0.4l-0.4,0.6l-1.2,0.6h-1.3l-0.5,0.3l-1.4-0.2
				l-0.8,0.2l-0.5,0.5l-0.6,2l-0.8,0.9l-0.6,0.3l-1.6,0.1l-0.7-0.2l-0.5-0.4l-0.7,0.1l-1.9,1.6l-0.8,0.2l-0.8-0.1l-0.9-0.5l-0.1-0.2
				l-0.5-0.5l-0.3,1.4l-0.3,0.6l-0.5,0.4l-0.2,0.5l-0.3-0.2v-1.7l-0.5-0.5l-1.5-0.3l-0.3-0.5l-0.7-0.2l-0.5,0.3l-1.2,2.4l0.1,2.1
				l-0.4,0.5l-1.4,0.4l-1,1l-1.2,3.1l-2,2.2l-1.4,0.5l-0.7,0.1l-0.6-0.5l-0.8-0.2h-1.7l-0.7,0.2l-2.8-1l-1.2,0.7h-2.4l-0.1,1.2
				l0.2,0.1l0.6,0.6l0.4,0.9l-0.1,1.1l-0.4,0.8l-0.6,0.6l-0.5,0.7l0.3,1.8l-0.2,0.7l0.2,0.9l-0.4,3l-0.4,0.8l-0.2,1l-0.5,0.8
				l0.6,0.6l-0.4,0.8l-0.1,0.7l2.3,2.5l0.8,0.4h1l0.8-0.4l0.6,0.2v1l-0.4,0.8l-0.6,0.6l-1.8,0.6L31.5,199.4L31.5,199.4z"/>
		</g>
	</g>
</g>
</svg>
