<?xml version="1.0" encoding="utf-8"?>
<!-- Generator: Adobe Illustrator 20.1.0, SVG Export Plug-In . SVG Version: 6.00 Build 0)  -->
<svg version="1.1" xmlns="http://www.w3.org/2000/svg" xmlns:xlink="http://www.w3.org/1999/xlink" x="0px" y="0px"
	 viewBox="0 0 128 128" style="enable-background:new 0 0 128 128;" xml:space="preserve">
<style type="text/css">
	.st0{fill:#FFFFFF;}
	.st1{fill:#092696;}
</style>
<g id="圖層_2">
	<circle class="st0" cx="64" cy="64" r="58.9"/>
</g>
<g id="圖層_1" xmlns:sketch="http://www.bohemiancoding.com/sketch/ns">
	<title>newtaipeicity</title>
	<desc>Created with Sketch.</desc>
	<g id="cities" sketch:type="MSPage">
		<g id="city" transform="translate(-128.000000, 0.000000)" sketch:type="MSArtboardGroup">
			<path id="newtaipeicity" sketch:type="MSShapeGroup" class="st1" d="M237.3,64.7l-1.7-0.3l-1.1,0.1l-2.8,1l-2.4,0.2l-3,2.1
				l-0.6,0.7h-1.3l-1-0.4L221,68l-0.8,0.6l-0.2,1l-0.4,0.8l1.8,2.6l-0.6,1.9l-2.6,1.7l-2.4-0.2l-1,0.2l-1.4,1.1l-1.1,1.4l0.2,1
				l-0.1,1l-0.6,0.8l-0.1,1l0.1,0.6l-1.1,0.2l-0.8,0.4l-3.4-0.5l-1,0.2l-0.9,0.5l-1.2,1.4l-2.2,1.2l-0.2,0.8l-0.8,0.7l-0.5,0.8
				l-1,0.3l-0.3,0.9l-0.7-0.8l-1.6,0.8l-4.7,0.6l0.6,0.6l-0.2,1l-1,0.8l-1.1-0.3l-0.8,0.5l-1,0.2l-0.4,0.9l0.1,1.1l-0.2,1l-0.9,0.7
				l0.2,1.1l0.6,0.6l0.3,1v1.2l-0.6,1.9l-1,0.2l-0.7,0.6l-0.5,0.7l-1,0.3l-1.2,0.1l-2.6,1.4l-0.2,1.1l-2.3,1.5l-2.1,0.3l-1,0.6
				l-2.1-0.1l-0.7-0.3l-0.2-2.2l-0.9-0.6l-0.6-0.9l-1.1-0.3l-0.1-0.8l-1.1-0.5l0.2-0.9l-1.4-1.4l-0.9-2.2v-0.5l-0.4-0.8l-0.2-1
				l0.5-0.9l1.4-1.2l0.5-0.7l0.7-0.5v-1.2l-1-0.3l-0.4-1.1l-0.1-1.1l-0.7-0.8l-0.7-0.4l-1.3-1.3l-0.3-0.9l-0.6-0.6l-0.2-0.4
				l-0.6-0.3l-2.4,0.2l-0.9,0.5l-1.2,0.1l-1.3-0.3l-0.8-0.5l-0.7-0.7l-0.7,0.6l-1.1-0.2l0.1-1l2.1-0.4l0.7-0.6l-1.1-0.7l-0.1-0.1
				l-0.2-1l0.6-0.7l-1.5-2.3l-2-1.2l-0.4-1.9l0.4-0.9l0.6-0.6l1-0.6l-0.7-0.6l-1-0.1l-0.6-1l0.4-0.9l0.6-0.6l0.2-2.2l-0.5-0.9l0.2-1
				l0.8-0.4l5,0.2l1.3-0.9l0.9-1.6l1-0.3l0.7-0.5l-0.1-1l-1-0.7l0.9-0.3l0.9-0.6l0.4-0.7l-1-0.7l-0.6-0.6l-0.2-1l0.4-0.8V56l-0.2-1
				l-0.8-1l-0.6-0.4h-2.4l-2.3-0.6l-0.9-0.8l0.2-1.6l-4.1-2l-2.2-0.2l-0.6-0.7l-0.6-0.2l-0.8-1.1l0.4-0.6l1.1-1l5.4-0.1l0.6-0.4
				l2.3-0.7l1.9-1.2l0.7-0.2l1.2-0.7l0.7-0.2l1.6-1.6l0.3-1.1l0.5-0.4h0.9l2.6,1.7l1,1l0.3,0.8l0.1,0.8l0.9,1.2l0.1,0.7l0.3,0.7
				l0.1,0.7l0.4-0.3l-0.1-3.4l-1-2l-0.4-0.6l-0.6-0.5l-0.7-1.2l-1.6-0.7l-0.9-0.1l-1.5-1.4l-0.1-0.5l0.5,0.1l0.9-0.2l0.9-1.7
				l0.1-0.8l0.9-1l0.6-0.3l0.4-0.6l0.1-0.8l0.6-1.1l0.2-0.7l0.4-0.5l0.1-0.8l0.6-0.4l1.6,0.2l0.3-0.1l1.6-3.3l0.7-0.2l0.6-0.5
				l1.5-0.4l0.6-0.5l0.1-0.8l0.3-0.3l0.3,0.7l2.3-0.3l0.5-0.3v-0.8l0.5-0.3l0.9,0.9h2.7l0.2-0.7l0.4-0.5l0.6-0.1l0.2,0l0.6,0.3
				l0.5,0.5l0.6,0.4h0.9l0.6,0.3l0.8,1l1.4,0.4l1.6,2.3l0.5,0.4l0.3,0.6l0.2,0.8l-0.2,1.7l0.9,0.9l0.6,0.3h0.9l0.3,0.6l-0.6,0.6
				l0.1,0.6l2.2,2.3l2.8-0.2l2-1.7l0.2,0.5l-0.6,0.5l-0.6,0.3l-0.4,0.5l0.5,0.4l0.1,0.3l-1.3,0.6l-0.3,0.7l0.2,0.6l0.7,0.5l0.7,0.2
				l1.3,0.9l-0.7,0.5l-0.9,0.3l-0.5,0.7l-1,0.2l-0.6,0.7l-1.8,0.8l-1.1,0.1l-0.9,0.3l-0.8,0.6l-2.2,0.2v1.2l0.5,0.9l1,0.3l0.6,0.7
				l0.1,1.1l1.4,3l1,0.7l0.7,1l1,0.2l0.6-0.6v0.9l0.7,0.8l3.1,0.8l2.4,2.1l2.3,0.2l2.1-1l1.1-0.1l0.5-0.8l0.3-1l-2.1-2V48l-0.2-1
				l1-0.2l1.3-1.4l1.1,0.2l0.8,0.6l0.4,0.1l0.8-1.3l0.6-0.6l0.4-1l0-0.5l0.8,0l0.7-0.3h0.9l-0.3,0.3l-0.3,0.6l-0.2,0.7l0.5,0.6h0.7
				l0.6-0.6l0.6-0.3l1.3,0.4l2,0.1l0.6,0.3l0.7-0.3l2.7,0.6h0.9l1.5-0.5l0.4-0.4l0.7-0.2l0.8,0.1v0.8l-0.6,0.3l-0.3,0.6l0.3,0.4
				l0.4,0.4l0.3,0.6l-0.2,0.7l-0.7,0.5l-0.7,2l0.6,1.3l1.9,1.9l0.1,0.3l-0.6,0.4l0.3,0.3v2.5l0.2,0.6l2.2,1.8l1.8,0.2l0.8-0.5
				l0.4-0.4l0.8,0l0.7,0.2l0.4,0.4l0.6,0.2l0.5,1l0.5-0.5l0.6-0.1l0.8,0.9l0,0.7l-0.3,0.6l-0.8,0.1l-0.3,0.6l-1.2,0.6l-0.3,0.5
				l-0.8,0.1l-0.3,0.7L237.3,64.7L237.3,64.7z M172.2,41.2l-0.6,1.2l-0.6,0.6l-0.2,0.3l-0.6,0.6v1.2l-0.8,0.5l-0.2,1l0.3,1l0.8,0.6
				l2.6,0.3l1.6,1.5l0.6,1.2l0.1,3.7l-1.2,1.7l-0.8,0.7l-0.4,0.9l0.2,2.3l0.5,1l1-0.1l0.9-0.5l0.6-0.8l0.6-0.1l1.3,0.6l0.7,0.6
				l0.3,0.9v1.2l0.6,1l1,0.7l1.1,0.1l0.5,1.9l1.7,1.1l4.5,0.5l1-0.4h1.3l0.1-0.8l-2.2-1l-0.2-1.1l0.1-1l-0.6-1.8v-1l0.6-0.9l0.8-0.5
				l2.2,0.2l0.7-0.5l1-0.2l3,0.2l0.2-0.6l-0.7-0.3l-1,0.3l-1.8-0.8l-2.2-1.6l-0.4-0.9l0.6-0.7l-0.2-0.9l-0.6-0.6l0.5-0.6l1-2.1
				l-0.2-2.1l-3.4-2.9l0.2-1l0.6-0.7l-0.2-0.8l-1.3-1.1l-0.5-0.7l-0.1-2.3l-1.3-1.3v-1.2l0.3-0.9v-1.2l-2.1,0.2l-0.9-1.6l-0.6-0.7
				L181,34l-0.9,0.4l-0.4,0.9l-1.7,1l-0.4,1l-0.7,0.5l-1.1,0.1l-0.9,0.4l-1.4,1.6l-0.4,1L172.2,41.2L172.2,41.2z"/>
		</g>
	</g>
</g>
</svg>
