<?xml version="1.0" encoding="utf-8"?>
<!-- Generator: Adobe Illustrator 20.1.0, SVG Export Plug-In . SVG Version: 6.00 Build 0)  -->
<svg version="1.1" xmlns="http://www.w3.org/2000/svg" xmlns:xlink="http://www.w3.org/1999/xlink" x="0px" y="0px"
	 viewBox="0 0 128 128" style="enable-background:new 0 0 128 128;" xml:space="preserve">
<style type="text/css">
	.st0{fill:#FFFFFF;}
	.st1{fill:#092696;}
</style>
<g id="圖層_2">
	<circle class="st0" cx="64" cy="64" r="58.9"/>
</g>
<g id="圖層_1" xmlns:sketch="http://www.bohemiancoding.com/sketch/ns">
	<title>taitung</title>
	<desc>Created with Sketch.</desc>
	<g id="cities" sketch:type="MSPage">
		<g id="county" sketch:type="MSArtboardGroup">
			<path id="taitung" sketch:type="MSShapeGroup" class="st1" d="M93.7,19.8l-0.5,1.7V22l-0.3,0.2l-0.4,1.7l0,1.4l-0.4,0.9l0,1.4
				L91.7,29l-0.4,0.3h-0.5l-0.4,0.1l-0.3,0.2l-0.3,0.8l-0.2,0.3L89.4,31l-0.2,0.3l0,0.4L88.9,32l-0.1,1l-0.2,0.3L88,35.7l0.2,0.3
				l0.1,0.3l-0.2,0.3l-0.4,0.3l-0.3-0.1l-0.2-0.3L87,36.6l0.2,0.3l0,0.3l-0.7,0.5l0.1,1.9l0.5,0.9l0.1,0.4l-0.1,0.9l-0.3,0.3l0,1.3
				l0.7,0.8l-0.2,0.7l-0.9,0l-0.3,0.3l-0.5,1l-0.3,0.2l-0.9,0l-0.2,0.3L83.8,47v0.5l-0.2,0.3v0.5L83.1,49l-0.3,1.2l-0.2,0.3
				l-0.2,1.4L82,52.3L82,52.7l-0.3,0.2l-0.3,0.3l-0.2,0.7l-0.2,0.4l-0.3,1.2l-0.2,0.2l-0.1,0.4v0.5l-0.8,0.8l-0.1,0.3l-0.4,0
				l-0.3,0.2l-0.2,0.4l-0.2,0.1l-0.1,0.8l-0.8,1.8l-0.5,0.5l-0.5,1.1l-0.2,0.8l-0.3,0.3l-0.4,0.1L75,64.4l0,0.7L74.2,65l-0.3,0.1
				L73,65.2l-1.4,1.2l-0.2,0.3l-0.1,0.4l0.2,0.3l0.4,0.5l0.1,0.3h-0.5l-0.2,0.3l0.2,0.3l0.3,0.2l0.2,0.3L72,69.7l0.3,0.7l-0.1,0.4
				l-0.5,0.5l-0.4,0.1l-0.3,0.3l-0.3,2L70,74.1l-0.7,0.3l-0.3,0.2l-0.2,0.3l-0.6,0.5l-0.2,0.3l-0.3,0.2l-0.4,0.2l-0.9,1.1l-0.6,0.4
				l-0.4,0.1l-0.2,0.2L64.9,78l-0.5,0.1l-0.2,0.2l-0.4,0l-0.2,0.3L63,79l-0.2,0.2l-0.6,0.3L62,79.9l-0.2,0.3l-0.4,0L61,80.5l-1,0.4
				l-0.3,0.3l-0.4,0.6l-0.2,0.8l-0.3,0.3l-0.1,0.4l-0.2,0.3l0,0.4l-0.2,0.4l0,0.4l0,0.1l0,1.3l-0.2,0.4l0,0.3l-0.5,0.7l-0.9,0.8
				l-0.2,0.3L56.2,89L56,89.3l-0.1,0.4L55.7,90l0,0.4l-0.2,0.4v0.5l-0.3,0.2v0.6l-0.7,1.7v0.5l-0.2,0.2v0.9l-0.5,1l0,0.5l-0.3,0.4
				l-0.1,0.9l-0.2,0.3l-0.1,0.9l-0.2,0.3l-0.1,0.4l-0.5,0.6l-0.1,0.3l-0.2,0.3l-0.9,2.5l-0.2,0.3l-0.1,1.2l-0.6,0.6l-0.7,2.2v0.9
				l-0.2,0.3l0.1,1.3l0.3,0.4v1.9l0.2,0.8l0,1.1l-0.9,0.3l-0.5,0.4l-0.8,0.3l-0.7-1.2l-0.7-0.2h-1L45,114l-0.7-0.2l-0.6-0.4l-1,0.1
				l-0.1-0.6l0.2-0.8l0.4-0.2l-0.7-0.2l-0.2-0.6l-1.2-0.7l0.4-0.6l0.6-0.3l-0.1-1.9l-0.6-0.4l-0.3-0.6h-0.7l-0.9-1l-0.9-0.4l1.2-3.6
				l1.6-0.2l0.3-0.7l-0.2-0.8l-0.7-0.5L40.3,98l-1-0.6l-0.1-0.7L39,95.9l1-0.8v-0.9l-1-2l-0.1-1.1l-0.4-0.2l-0.2-0.7l0.1-0.9
				l0.7-1.2l-0.3-0.7l0.4-0.6l0.2-0.7l-0.1-0.9l0.2-0.6l0.5-0.5l0.2-0.7l0.4-0.5l0.1-0.2l1-1.4l0.1-0.9l0.4-0.6l0.1-0.6l0.8,0.1
				l0.9-0.4l1.5-0.3l0.7-1.6l2.7-0.1l0.5-0.6l0.1-0.9l0.4-0.5l0.1-2.4l0.5-0.5l-0.2-0.6v-0.9L50,69.8l-0.6-0.3l-0.8-0.1l-0.7-0.6
				l-0.2-0.4l-0.2-0.7v-0.9l0.1-0.2l0.2-1.7l-0.7-1l-1.3-0.1l-0.7-2.1l0.1-1.2l-0.3-0.4l-0.4-1v-1.3l0.3-1.1l2.4-3.2l0.2-0.4v-1
				l1.6-1.1L48.5,50l-0.6-0.6l0.4-1.1l0.9-1l-0.3-5.5l0.8-0.5l0.5-1.2l0.9-0.4l-0.3-1v-1l0.3-1l-0.1-0.4l-0.3-0.2l0.7-0.9l0.9-0.4
				l1.7-1.4l1.2-1.6h1l1.9-0.5l0.7-0.7l2-0.9l0.2,0.6l0.9,1.2L62,32.6l0.9,2.2l0.2,0.2l0.3,0.6h1l1.3,0.8l0.9,0.1l0.9,1l0.3,0.6
				l0.7,0.3h0.2l0.1-0.3l1.3-0.6l1.2,0.8l0.4,0.6l0.3,0.7v1.1l0.9,1.3v0.7l0.6,0.4l0.7,0.2l0.4,0.6l0.2,0.2l1.1,0.1l0.5,0.4l0.4,0.8
				l0.1,0.9l0.5,0.1l0.6-0.4l2.4-0.4l0.2-0.7v-2.8L80.8,41l0.2-0.7l1-0.9l0.7-1.4l0.1-0.7l0.4-0.7v-0.9l0.6-0.4l0.4-1.5l0.3-0.6
				l0.6-0.4l0.4-0.6l0.1-2.2l3-4.5v-0.1L87.8,25l-0.5-0.6l-0.1-1.1l0.1-0.1l1.8-3.2l1-0.9l0.7-0.2h0.9l0.7,0.2l0.6,0.4L93.7,19.8
				L93.7,19.8z"/>
		</g>
	</g>
</g>
</svg>
